<svg xmlns="http://www.w3.org/2000/svg" width="33.856" height="26.298" viewBox="0 0 33.856 26.298">
  <g id="noun_ac_3509802" transform="translate(-19 -72)">
    <path id="Path_25771" data-name="Path 25771" d="M52.856,74a2,2,0,0,0-2-2H21a2,2,0,0,0-2,2v9.928a2,2,0,0,0,2,2H50.856a2,2,0,0,0,2-2ZM20.99,73.143H50.866a.838.838,0,0,1,.847.844v4.3H20.143v-4.3a.838.838,0,0,1,.847-.844ZM47.142,84.785h-22.5V82.714a.889.889,0,0,1,.893-.857H46.321a.828.828,0,0,1,.821.857Zm3.724,0H48.285V82.714a1.972,1.972,0,0,0-1.964-2H25.536a2.033,2.033,0,0,0-2.036,2v2.071H20.99a.879.879,0,0,1-.847-.891V79.428h31.57v4.466A.879.879,0,0,1,50.866,84.785Z" fill="#4e4e4e"/>
    <path id="Path_25772" data-name="Path 25772" d="M78.571,113.714a.571.571,0,0,0,.571-.571v-.571a.571.571,0,0,0-1.143,0v.571A.571.571,0,0,0,78.571,113.714Z" transform="translate(-54.786 -37.143)" fill="#4e4e4e"/>
    <path id="Path_25773" data-name="Path 25773" d="M118.571,113.714a.571.571,0,0,0,.571-.571v-.571a.571.571,0,0,0-1.143,0v.571A.571.571,0,0,0,118.571,113.714Z" transform="translate(-91.929 -37.143)" fill="#4e4e4e"/>
    <path id="Path_25774" data-name="Path 25774" d="M158.571,113.714a.571.571,0,0,0,.571-.571v-.571a.571.571,0,0,0-1.143,0v.571A.571.571,0,0,0,158.571,113.714Z" transform="translate(-129.072 -37.143)" fill="#4e4e4e"/>
    <path id="Path_25775" data-name="Path 25775" d="M114.679,306.437a2.271,2.271,0,0,0,.487,1.441,1.179,1.179,0,0,1,.284.791.571.571,0,1,0,1.143,0,2.271,2.271,0,0,0-.487-1.441,1.244,1.244,0,0,1,0-1.583,2.376,2.376,0,0,0,0-2.882,1.244,1.244,0,0,1,0-1.583,2.271,2.271,0,0,0,.487-1.441.571.571,0,1,0-1.143,0,1.181,1.181,0,0,1-.284.791,2.376,2.376,0,0,0,0,2.882,1.244,1.244,0,0,1,0,1.583A2.271,2.271,0,0,0,114.679,306.437Z" transform="translate(-88.845 -210.943)" fill="#4e4e4e"/>
    <path id="Path_25776" data-name="Path 25776" d="M178.642,306.437a2.271,2.271,0,0,0,.487,1.441,1.179,1.179,0,0,1,.284.791.571.571,0,0,0,1.143,0,2.271,2.271,0,0,0-.487-1.441,1.244,1.244,0,0,1,0-1.583,2.376,2.376,0,0,0,0-2.882,1.244,1.244,0,0,1,0-1.583,2.271,2.271,0,0,0,.487-1.441.571.571,0,0,0-1.143,0,1.18,1.18,0,0,1-.284.791,2.376,2.376,0,0,0,0,2.882,1.244,1.244,0,0,1,0,1.583A2.272,2.272,0,0,0,178.642,306.437Z" transform="translate(-148.239 -210.943)" fill="#4e4e4e"/>
    <path id="Path_25777" data-name="Path 25777" d="M242.6,306.437a2.27,2.27,0,0,0,.487,1.441,1.179,1.179,0,0,1,.284.791.571.571,0,0,0,1.143,0,2.27,2.27,0,0,0-.487-1.441,1.243,1.243,0,0,1,0-1.583,2.376,2.376,0,0,0,0-2.882,1.244,1.244,0,0,1,0-1.583,2.271,2.271,0,0,0,.487-1.441.571.571,0,0,0-1.143,0,1.181,1.181,0,0,1-.284.791,2.376,2.376,0,0,0,0,2.882,1.244,1.244,0,0,1,0,1.583A2.271,2.271,0,0,0,242.6,306.437Z" transform="translate(-207.629 -210.943)" fill="#4e4e4e"/>
    <path id="Path_25778" data-name="Path 25778" d="M306.566,306.437a2.271,2.271,0,0,0,.487,1.441,1.179,1.179,0,0,1,.284.791.571.571,0,0,0,1.143,0,2.271,2.271,0,0,0-.487-1.441,1.244,1.244,0,0,1,0-1.583,2.376,2.376,0,0,0,0-2.882,1.244,1.244,0,0,1,0-1.583,2.271,2.271,0,0,0,.487-1.441.571.571,0,1,0-1.143,0,1.18,1.18,0,0,1-.284.791,2.376,2.376,0,0,0,0,2.882,1.244,1.244,0,0,1,0,1.583A2.272,2.272,0,0,0,306.566,306.437Z" transform="translate(-267.026 -210.943)" fill="#4e4e4e"/>
    <path id="Path_25779" data-name="Path 25779" d="M370.528,306.437a2.271,2.271,0,0,0,.487,1.441,1.179,1.179,0,0,1,.284.791.571.571,0,0,0,1.143,0,2.271,2.271,0,0,0-.487-1.441,1.244,1.244,0,0,1,0-1.583,2.376,2.376,0,0,0,0-2.882,1.244,1.244,0,0,1,0-1.583,2.271,2.271,0,0,0,.487-1.441.571.571,0,0,0-1.143,0,1.181,1.181,0,0,1-.284.791,2.376,2.376,0,0,0,0,2.882,1.244,1.244,0,0,1,0,1.583A2.271,2.271,0,0,0,370.528,306.437Z" transform="translate(-326.42 -210.943)" fill="#4e4e4e"/>
  </g>
</svg>
