<svg xmlns="http://www.w3.org/2000/svg" width="38" height="37.556" viewBox="0 0 38 37.556">
    <g id="Group_13453" data-name="Group 13453" transform="translate(-678.588 -749)">
        <g id="Group_13308" data-name="Group 13308" transform="translate(678.588 749)">
            <g id="Group_13307" data-name="Group 13307" transform="translate(0 0)">
                <path id="Path_26792" data-name="Path 26792" d="M13.926,163.9a3.568,3.568,0,1,0,3.568,3.568,3.568,3.568,0,0,0-3.568-3.568Zm6.387,7.582a.919.919,0,0,0-.236.031.7.7,0,0,0-.5.874l.8,2.79-2.883,1.664v-3.307a1.424,1.424,0,0,0-1.427-1.427H11.785a1.423,1.423,0,0,0-1.381,1.072H7.5a3.072,3.072,0,0,0-2.855,3.262v4.893A3.072,3.072,0,0,0,7.5,184.592h2.854v7.85S8.88,195.767,8.051,197.9a.027.027,0,0,1-.023-.009c-.722-.272-5.478,2.349-6.44,2.887v.675h38V188.384a19.223,19.223,0,0,0-5.083.171,43.106,43.106,0,0,0-6.262-.883c-.226,0-.432.006-.612.023a6.747,6.747,0,0,0-2.479,1.269l-3-12.109a1.246,1.246,0,0,0-.153-1.5.01.01,0,0,0,0-.006,1.063,1.063,0,0,0,.127-.469,2.016,2.016,0,0,0-.057-.583l-.369-1.379a1.3,1.3,0,0,0-.731-.825l-.02-.082a.724.724,0,0,0-.639-.536Zm.749.982a.96.96,0,0,1,.382.53l.369,1.379a1.741,1.741,0,0,1,.048.5.893.893,0,0,1-.073.31c-.021-.014-.043-.03-.065-.043Zm.028,5.186,3.4,11.8c-1.008.757-2.058,1.649-2.927,2.449-.21-2.013-.5-4.962-.5-5.876,0-1.058-2.351-2.9-3.568-3.781v-2.516ZM15,185.661a17.456,17.456,0,0,0,2.5,1.784l1.387,6.937a9.9,9.9,0,0,1-2.8-.8c-.655-.247-1.783.3-2.89,1.031l.731-1.462Z" transform="translate(-1.588 -163.895)" fill="#fff"/>
            </g>
        </g>
    </g>
</svg>
