<svg xmlns="http://www.w3.org/2000/svg" width="35.004" height="15.359" viewBox="0 0 35.004 15.359">
    <g id="Group_13450" data-name="Group 13450" transform="translate(-741.201 -554.367)">
        <path id="Path_26785" data-name="Path 26785" d="M1178.768,256.734a2.875,2.875,0,0,0-.047,5.75,2.874,2.874,0,1,0,.047-5.748Z" transform="translate(-409.076 307.242)" fill="#fff"/>
        <path id="Path_26786" data-name="Path 26786" d="M859.077,256.735a2.873,2.873,0,1,0,2.83,2.9A2.823,2.823,0,0,0,859.077,256.735Z" transform="translate(-110.398 307.242)" fill="#fff"/>
        <path id="Path_26787" data-name="Path 26787" d="M1259.165,210.384c-.372-.143-.8-.367-1.14.048-.218.263-.031.829.4,1.165a4.619,4.619,0,0,0,2.559.773A3.764,3.764,0,0,0,1259.165,210.384Z" transform="translate(-485.73 350.719)" fill="none"/>
        <path id="Path_26788" data-name="Path 26788" d="M797.234,195.918a1.3,1.3,0,0,0-1.608.724,17.377,17.377,0,0,0-.56,2.217,4.068,4.068,0,0,0-.009.831l.132.017c.17-.5.329-1.007.517-1.5a1.8,1.8,0,0,1,1.528-1.35c.164-.018.434-.3.42-.436A.735.735,0,0,0,797.234,195.918Z" transform="translate(-53.299 364.121)" fill="none"/>
        <path id="Path_26789" data-name="Path 26789" d="M821.84,121a4.289,4.289,0,0,0-2.094-3.643,8.076,8.076,0,0,0-3.086-1.167,11.313,11.313,0,0,1-4.627-1.981c-.992-.677-2-1.336-3.027-1.95a8.642,8.642,0,0,0-3.708-1.326c-1.733-.142-3.475-.085-5.211-.193h0c-1.093,0-2.187-.036-3.278.009a5.082,5.082,0,0,0-3.851,1.5,20.513,20.513,0,0,0-1.387,1.782,2.277,2.277,0,0,1-1.333.987,3.881,3.881,0,0,0-3.192,3.5,16.618,16.618,0,0,0-.189,2.39,15.077,15.077,0,0,0,.317,2.42.848.848,0,0,0,.78.8c.739.026,1.479.012,2.219,0a.461.461,0,0,0,.509-.52c.006-.307.045-.614.076-.921a3.477,3.477,0,0,1,2.918-3.141,3.424,3.424,0,0,1,3.892,2.036,6.945,6.945,0,0,1,.387,1.789c.057.45.249.607.683.611q6.055.051,12.11.118c.77.007,1-.214.991-.971a3.405,3.405,0,0,1,1.25-2.759c1.7-1.448,4.77-1.012,5.588,1.31a8.457,8.457,0,0,1,.338,1.985c.027.28.1.4.359.4.537,0,1.076.023,1.61-.022.69-.058.944-.354.959-1.053C821.857,122.328,821.87,121.662,821.84,121Zm-20.612-5.509h-7.713c-.009-1.366-.574-4,7.712-3.713Zm1.133-.033v-3.649c6.223,0,7.778,2.467,7.778,3.647Z" transform="translate(-45.654 443.641)" fill="#fff"/>
    </g>
</svg>
