<svg xmlns="http://www.w3.org/2000/svg" width="677.948" height="599.64" viewBox="0 0 677.948 599.64">
  <defs>
    <clipPath id="clip-path">
      <path id="Path_24785" data-name="Path 24785" d="M322.5,408.008c.253,17.512,15.552,66.635,22.839,89.079H268.524L248.91,368.258l18.4-8.867s14.13-6.575,23.708-4.283,21.685,9.483,21.685,9.483l10.179,3.619S322.183,385.012,322.5,408.008Z" transform="translate(-248.91 -354.623)" fill="#fff" stroke="#263238" stroke-linejoin="round" stroke-width="1.055"/>
    </clipPath>
    <clipPath id="clip-path-2">
      <path id="Path_24789" data-name="Path 24789" d="M312.5,364.352s-6.164,6.733-7.286,11.775,2.8,24.688-6.733,29.73-20.183-4.489-25.794-15.711-2.813-17.892-2.813-17.892,13.466-13.466,19.63-23.55a87.458,87.458,0,0,0,8.977-20.7s3.367,18.508,7.9,25.288A61.131,61.131,0,0,1,312.5,364.352Z" transform="translate(-269.18 -328)" fill="#fff" stroke="#263238" stroke-linecap="round" stroke-linejoin="round" stroke-width="1.055"/>
    </clipPath>
  </defs>
  <g id="Setup_Wizard-bro" data-name="Setup Wizard-bro" transform="translate(0)" style="mix-blend-mode: luminosity;isolation: isolate">
    <g id="freepik--background-simple--inject-34" transform="translate(0)">
      <path id="Path_24705" data-name="Path 24705" d="M166.809,89.722s77.067-58.97,173.827-28.734S475.724,176.651,529.952,236.237c28.45,31.215,71.361,43.733,105.485,68.137C744.493,382.4,722.808,549.5,634.9,610.064c-76.1,52.41-169.228,55.24-288.921,11.064S140.509,550,69.069,432.033,71.693,170.076,166.809,89.722Z" transform="translate(-40.55 -52.363)" fill="#f0f3f4"/>
    </g>
    <g id="freepik--Mug--inject-34" transform="translate(102.379 439.746)">
      <rect id="Rectangle_17881" data-name="Rectangle 17881" width="28.797" height="42.548" transform="translate(76.134 46.025)" fill="#fff" stroke="#263238" stroke-linecap="round" stroke-linejoin="round" stroke-width="1.055"/>
      <path id="Path_24706" data-name="Path 24706" d="M359.906,451.577h3a2.387,2.387,0,0,0,0-4.742h-3a4.52,4.52,0,0,1-4.5-4.5v-10.3a4.52,4.52,0,0,1,4.5-4.5h3.856a2.371,2.371,0,0,0,0-4.742h-3.856a9.246,9.246,0,0,0-9.246,9.246v10.305a9.262,9.262,0,0,0,9.246,9.246Z" transform="translate(-282.476 -368.742)" fill="#fff" stroke="#263238" stroke-linecap="round" stroke-linejoin="round" stroke-width="1.055"/>
      <path id="Path_24707" data-name="Path 24707" d="M338.05,394.533a19.109,19.109,0,0,0,3.161-5.943" transform="translate(-237.623 -388.59)" fill="none" stroke="#263238" stroke-linejoin="round" stroke-width="1.055"/>
      <path id="Path_24708" data-name="Path 24708" d="M356.609,427.6s1.2-1.2-9.056-6.638-10.858-14.478-.6-21.717a43.924,43.924,0,0,0,4.963-4.062" transform="translate(-255.439 -384.764)" fill="none" stroke="#263238" stroke-linejoin="round" stroke-width="1.055"/>
      <path id="Path_24709" data-name="Path 24709" d="M359.071,425.5s-9.657-4.22-10.858-12.06a16.722,16.722,0,0,1,6.038-15.695" transform="translate(-271.209 -383.272)" fill="none" stroke="#263238" stroke-linejoin="round" stroke-width="1.055"/>
      <path id="Path_24710" data-name="Path 24710" d="M393.559,436.25c6.512,0,11.775,2.655,11.775,5.927s-5.263,5.927-11.775,5.927-11.759-2.655-11.759-5.927S387.063,436.25,393.559,436.25Zm0,8.029c2.308,0,4.157-.948,4.157-2.1s-1.849-2.086-4.157-2.086-4.141.933-4.141,2.086S391.267,444.279,393.559,444.279Z" transform="translate(-370.894 -360.922)" fill="#92e3a9" stroke="#263238" stroke-linejoin="round" stroke-width="1.055"/>
      <path id="Path_24711" data-name="Path 24711" d="M385.745,430.58c9.214,0,16.675,4.852,16.675,10.842s-7.46,10.842-16.675,10.842-16.675-4.852-16.675-10.842S376.53,430.58,385.745,430.58Zm0,13.15c1.96,0,3.556-1.043,3.556-2.308s-1.581-2.307-3.556-2.307-3.556,1.027-3.556,2.307S383.785,443.73,385.745,443.73Z" transform="translate(-347.859 -364.214)" fill="#92e3a9" stroke="#263238" stroke-linejoin="round" stroke-width="1.055"/>
      <path id="Path_24712" data-name="Path 24712" d="M364.99,439.99H426l-7.049,7.334h-46.91Z" transform="translate(-364.99 -358.751)" fill="#fff" stroke="#263238" stroke-linejoin="round" stroke-width="1.055"/>
    </g>
    <g id="freepik--Plants--inject-34" transform="translate(3.187 219.373)">
      <path id="Path_24713" data-name="Path 24713" d="M427.442,287.093s-.632-7.729,9.309-19.456,16.406-18.476,16.406-18.476,6.875,17.386-2.292,29a190.016,190.016,0,0,1-22.286,22.9Z" transform="translate(-394.126 -249.16)" fill="#92e3a9"/>
      <path id="Path_24714" data-name="Path 24714" d="M414.992,316.843s-.632-7.729,9.294-19.456,16.406-18.476,16.406-18.476,6.875,17.386-2.292,29a190,190,0,0,1-22.27,22.854Z" transform="translate(-361.983 -231.889)" fill="#92e3a9"/>
      <path id="Path_24715" data-name="Path 24715" d="M477.626,292.384S476.172,284.75,463.4,276.1s-20.737-13.434-20.737-13.434-1.992,18.555,9.942,27.343a191.252,191.252,0,0,0,27.565,16.09Z" transform="translate(-442.54 -241.317)" fill="#92e3a9"/>
      <path id="Path_24716" data-name="Path 24716" d="M464.468,326.089s-2.244-7.429-15.805-14.7S426.63,300.2,426.63,300.2s0,18.666,12.771,26.158a191.983,191.983,0,0,0,29.082,13.1Z" transform="translate(-405.706 -219.53)" fill="#92e3a9"/>
      <path id="Path_24717" data-name="Path 24717" d="M459.713,368.323s-.632-7.729-12.36-17.67S428.165,335.1,428.165,335.1s-3.951,18.239,6.986,28.244a190.55,190.55,0,0,0,25.7,18.966Z" transform="translate(-399.401 -199.269)" fill="#92e3a9"/>
      <path id="Path_24718" data-name="Path 24718" d="M411.764,380.843s-1.723-7.571,6.449-20.547,13.593-20.626,13.593-20.626,9.278,16.2,1.865,29.034A189.988,189.988,0,0,1,414.878,394.5Z" transform="translate(-350.031 -196.616)" fill="#92e3a9"/>
      <path id="Path_24719" data-name="Path 24719" d="M449.7,405.849s-.632-7.745-12.36-17.686-19.188-15.552-19.188-15.552-3.951,18.239,7,28.244a190.285,190.285,0,0,0,25.7,18.966Z" transform="translate(-373.585 -177.494)" fill="#92e3a9"/>
      <path id="Path_24720" data-name="Path 24720" d="M446.571,434.575s1.344-7.65-7.476-20.231S424.46,394.43,424.46,394.43s-8.44,16.643-.379,29.1a190.419,190.419,0,0,0,20.073,24.8Z" transform="translate(-374.327 -164.826)" fill="#92e3a9"/>
      <path id="Path_24721" data-name="Path 24721" d="M417.378,272a222.86,222.86,0,0,0,4.931,23.708c6.1,21.78,17.986,35.167,23.913,54.8s-4.252,46.373,1.154,71.756,16.564,38.849,15.11,56.2-12.644,64.976-12.644,64.976" transform="translate(-385.216 -235.901)" fill="none" stroke="#263238" stroke-linecap="round" stroke-linejoin="round" stroke-width="0.528"/>
      <line id="Line_74" data-name="Line 74" x1="12.407" y1="7.997" transform="translate(23.2 48.19)" fill="none" stroke="#263238" stroke-linecap="round" stroke-linejoin="round" stroke-width="0.528"/>
      <line id="Line_75" data-name="Line 75" y1="9.088" x2="4.173" transform="translate(34.217 36.842)" fill="none" stroke="#263238" stroke-linecap="round" stroke-linejoin="round" stroke-width="0.528"/>
      <path id="Path_24722" data-name="Path 24722" d="M449.221,325.9s-10.384-6.528-21.021-13.024" transform="translate(-388.926 -212.169)" fill="none" stroke="#263238" stroke-linecap="round" stroke-linejoin="round" stroke-width="0.528"/>
      <path id="Path_24723" data-name="Path 24723" d="M422.48,322s6.828-16.627,15.189-27.975" transform="translate(-368.333 -223.117)" fill="none" stroke="#263238" stroke-linecap="round" stroke-linejoin="round" stroke-width="0.528"/>
      <path id="Path_24724" data-name="Path 24724" d="M451.062,372.747a121.5,121.5,0,0,0-23.2-26.237" transform="translate(-390.229 -192.645)" fill="none" stroke="#263238" stroke-linecap="round" stroke-linejoin="round" stroke-width="0.528"/>
      <path id="Path_24725" data-name="Path 24725" d="M416.81,381.264a136.62,136.62,0,0,1,8.93-20.958c5.01-8.883,5.737-10.036,5.737-10.036" transform="translate(-353.18 -190.463)" fill="none" stroke="#263238" stroke-linecap="round" stroke-linejoin="round" stroke-width="0.528"/>
      <path id="Path_24726" data-name="Path 24726" d="M440.352,414.037a130.578,130.578,0,0,0-10.258-17.07A113.444,113.444,0,0,0,417.45,382.98" transform="translate(-363.066 -171.474)" fill="none" stroke="#263238" stroke-linecap="round" stroke-linejoin="round" stroke-width="0.528"/>
      <path id="Path_24727" data-name="Path 24727" d="M438.922,442.59a33.271,33.271,0,0,0-4.331-16.88c-4.742-7.539-10.194-17.481-12.423-21.4" transform="translate(-369.095 -159.091)" fill="none" stroke="#263238" stroke-linecap="round" stroke-linejoin="round" stroke-width="0.528"/>
      <path id="Path_24728" data-name="Path 24728" d="M412.814,343.771s.443-4.915-5.832-12.423-10.337-11.838-10.337-11.838-4.473,11.064,1.312,18.476a121.971,121.971,0,0,0,14.067,14.651Z" transform="translate(-300.045 -208.32)" fill="#92e3a9"/>
      <path id="Path_24729" data-name="Path 24729" d="M420.9,362.651s.443-4.931-5.832-12.423-10.337-11.838-10.337-11.838-4.457,11.064,1.312,18.461A121.985,121.985,0,0,0,420.107,371.5Z" transform="translate(-320.915 -197.359)" fill="#92e3a9"/>
      <path id="Path_24730" data-name="Path 24730" d="M383.319,347.025s.964-4.852,9.088-10.289,13.245-8.456,13.245-8.456,1.2,11.822-6.449,17.386A121.949,121.949,0,0,1,381.6,355.781Z" transform="translate(-271.767 -203.228)" fill="#92e3a9"/>
      <path id="Path_24731" data-name="Path 24731" d="M392.794,368.411s1.47-4.742,10.115-9.278,14.067-7.033,14.067-7.033,0,11.886-8.235,16.6a122.823,122.823,0,0,1-18.571,8.2Z" transform="translate(-296.573 -189.4)" fill="#92e3a9"/>
      <path id="Path_24732" data-name="Path 24732" d="M394.069,395.3s.443-4.931,7.9-11.19,12.3-9.815,12.3-9.815,2.434,11.617-4.584,17.939a120.83,120.83,0,0,1-16.453,11.917Z" transform="translate(-299.113 -176.518)" fill="#92e3a9"/>
      <path id="Path_24733" data-name="Path 24733" d="M422.485,403.346s1.138-4.742-4.014-13.118-8.551-13.2-8.551-13.2-5.974,10.258-1.328,18.476a122.014,122.014,0,0,0,11.838,16.5Z" transform="translate(-328.508 -174.928)" fill="#92e3a9"/>
      <path id="Path_24734" data-name="Path 24734" d="M434.775,426.029s-.964-4.852-9.088-10.289-13.261-8.44-13.261-8.44-1.185,11.822,6.464,17.386a120.859,120.859,0,0,0,17.623,10.084Z" transform="translate(-351.183 -157.355)" fill="#92e3a9"/>
      <path id="Path_24735" data-name="Path 24735" d="M400.594,419.125s.443-4.931,7.9-11.206,12.3-9.8,12.3-9.8,2.434,11.617-4.584,17.939a122.77,122.77,0,0,1-16.438,11.917Z" transform="translate(-315.974 -162.684)" fill="#92e3a9"/>
      <path id="Path_24736" data-name="Path 24736" d="M400.887,437.438s-.822-4.868,4.852-12.834,9.388-12.644,9.388-12.644,5.311,10.621.111,18.508a121.588,121.588,0,0,1-12.881,15.694Z" transform="translate(-313.991 -154.65)" fill="#92e3a9"/>
      <path id="Path_24737" data-name="Path 24737" d="M424.286,334.1a144.3,144.3,0,0,1-3.256,15.11c-3.983,13.83-11.6,22.286-15.473,34.772s2.5,29.524-1.059,45.661-10.732,24.64-9.878,35.7,7.713,41.394,7.713,41.394" transform="translate(-310.806 -199.85)" fill="none" stroke="#263238" stroke-linecap="round" stroke-linejoin="round" stroke-width="0.528"/>
      <line id="Line_76" data-name="Line 76" y1="5.042" x2="7.934" transform="translate(111.189 142.026)" fill="none" stroke="#263238" stroke-linecap="round" stroke-linejoin="round" stroke-width="0.528"/>
      <line id="Line_77" data-name="Line 77" x1="2.608" y1="5.801" transform="translate(109.513 134.724)" fill="none" stroke="#263238" stroke-linecap="round" stroke-linejoin="round" stroke-width="0.528"/>
      <path id="Path_24738" data-name="Path 24738" d="M397.6,368.307s6.622-4.094,13.434-8.187" transform="translate(-302.375 -184.744)" fill="none" stroke="#263238" stroke-linecap="round" stroke-linejoin="round" stroke-width="0.528"/>
      <path id="Path_24739" data-name="Path 24739" d="M413.073,365.906a99.385,99.385,0,0,0-9.483-17.876" transform="translate(-313.881 -191.763)" fill="none" stroke="#263238" stroke-linecap="round" stroke-linejoin="round" stroke-width="0.528"/>
      <path id="Path_24740" data-name="Path 24740" d="M397.1,398.1a77.585,77.585,0,0,1,14.888-16.6" transform="translate(-302.539 -172.333)" fill="none" stroke="#263238" stroke-linecap="round" stroke-linejoin="round" stroke-width="0.528"/>
      <path id="Path_24741" data-name="Path 24741" d="M416.869,403.588a87.674,87.674,0,0,0-5.6-13.371c-3.161-5.69-3.6-6.417-3.6-6.417" transform="translate(-324.125 -170.997)" fill="none" stroke="#263238" stroke-linecap="round" stroke-linejoin="round" stroke-width="0.528"/>
      <path id="Path_24742" data-name="Path 24742" d="M428.534,427.217a72.509,72.509,0,0,0-9.673-8.519,47.621,47.621,0,0,1-6.212-4.568" transform="translate(-343.661 -153.39)" fill="none" stroke="#263238" stroke-linecap="round" stroke-linejoin="round" stroke-width="0.528"/>
      <path id="Path_24743" data-name="Path 24743" d="M404.02,424.352a82.187,82.187,0,0,1,6.607-10.827,72.714,72.714,0,0,1,8.092-8.835" transform="translate(-320.206 -158.87)" fill="none" stroke="#263238" stroke-linecap="round" stroke-linejoin="round" stroke-width="0.528"/>
      <path id="Path_24744" data-name="Path 24744" d="M403.581,442.547a21.068,21.068,0,0,1,2.845-10.732c3.035-4.742,6.559-11.064,8-13.545" transform="translate(-315.215 -150.987)" fill="none" stroke="#263238" stroke-linecap="round" stroke-linejoin="round" stroke-width="0.528"/>
      <path id="Path_24745" data-name="Path 24745" d="M85.29,287.093s-.632-7.729,9.309-19.456,16.39-18.476,16.39-18.476,6.875,17.386-2.276,29a190,190,0,0,1-22.27,22.9Z" transform="translate(488.82 -249.16)" fill="#92e3a9"/>
      <path id="Path_24746" data-name="Path 24746" d="M72.832,316.843s-.632-7.729,9.309-19.456,16.39-18.476,16.39-18.476,6.875,17.386-2.292,29a189.159,189.159,0,0,1-22.254,22.854Z" transform="translate(520.972 -231.889)" fill="#92e3a9"/>
      <path id="Path_24747" data-name="Path 24747" d="M135.463,292.384s-1.454-7.634-14.225-16.279-20.721-13.434-20.721-13.434-2.007,18.555,9.942,27.343a191.455,191.455,0,0,0,27.549,16.09Z" transform="translate(440.402 -241.317)" fill="#92e3a9"/>
      <path id="Path_24748" data-name="Path 24748" d="M122.288,326.089s-2.229-7.429-15.805-14.7S84.45,300.2,84.45,300.2s0,18.666,12.755,26.158A191.826,191.826,0,0,0,126.318,339.4Z" transform="translate(477.285 -219.53)" fill="#92e3a9"/>
      <path id="Path_24749" data-name="Path 24749" d="M117.615,368.323s-.632-7.729-12.344-17.67S86,335.1,86,335.1s-3.951,18.239,7,28.244a189.472,189.472,0,0,0,25.7,18.966Z" transform="translate(483.539 -199.269)" fill="#92e3a9"/>
      <path id="Path_24750" data-name="Path 24750" d="M69.6,380.843s-1.739-7.571,6.449-20.547S89.639,339.67,89.639,339.67s9.278,16.169,1.865,28.971a191.512,191.512,0,0,1-18.793,25.794Z" transform="translate(532.947 -196.616)" fill="#92e3a9"/>
      <path id="Path_24751" data-name="Path 24751" d="M107.626,405.849s-.648-7.745-12.36-17.686S76.015,372.61,76.015,372.61,72.064,390.849,83,400.854a191.4,191.4,0,0,0,25.7,18.966Z" transform="translate(509.333 -177.494)" fill="#92e3a9"/>
      <path id="Path_24752" data-name="Path 24752" d="M104.394,434.593s1.359-7.634-7.476-20.278S82.3,394.4,82.3,394.4s-8.44,16.643-.379,29.1a189.564,189.564,0,0,0,20.073,24.846Z" transform="translate(508.645 -164.844)" fill="#92e3a9"/>
      <path id="Path_24753" data-name="Path 24753" d="M75.2,272a219,219,0,0,0,4.947,23.708c6.1,21.78,17.971,35.167,23.9,54.8s-4.252,46.373,1.154,71.756,16.564,38.849,15.126,56.2S107.68,543.44,107.68,543.44" transform="translate(497.773 -235.901)" fill="none" stroke="#263238" stroke-linecap="round" stroke-linejoin="round" stroke-width="0.528"/>
      <line id="Line_78" data-name="Line 78" x1="12.407" y1="7.997" transform="translate(564.011 48.19)" fill="none" stroke="#263238" stroke-linecap="round" stroke-linejoin="round" stroke-width="0.528"/>
      <line id="Line_79" data-name="Line 79" y1="9.088" x2="4.173" transform="translate(575.027 36.842)" fill="none" stroke="#263238" stroke-linecap="round" stroke-linejoin="round" stroke-width="0.528"/>
      <path id="Path_24754" data-name="Path 24754" d="M107.021,325.9S96.653,319.376,86,312.88" transform="translate(494.132 -212.169)" fill="none" stroke="#263238" stroke-linecap="round" stroke-linejoin="round" stroke-width="0.528"/>
      <path id="Path_24755" data-name="Path 24755" d="M80.31,322.007S87.138,305.38,95.5,294" transform="translate(514.648 -223.129)" fill="none" stroke="#263238" stroke-linecap="round" stroke-linejoin="round" stroke-width="0.528"/>
      <path id="Path_24756" data-name="Path 24756" d="M108.886,372.747A121.146,121.146,0,0,0,85.7,346.51" transform="translate(492.741 -192.645)" fill="none" stroke="#263238" stroke-linecap="round" stroke-linejoin="round" stroke-width="0.528"/>
      <path id="Path_24757" data-name="Path 24757" d="M74.65,381.264a138.42,138.42,0,0,1,8.93-20.958c5.01-8.883,5.737-10.036,5.737-10.036" transform="translate(529.775 -190.463)" fill="none" stroke="#263238" stroke-linecap="round" stroke-linejoin="round" stroke-width="0.528"/>
      <path id="Path_24758" data-name="Path 24758" d="M98.2,414.037a131.609,131.609,0,0,0-10.273-17.07A113.433,113.433,0,0,0,75.28,382.98" transform="translate(519.899 -171.474)" fill="none" stroke="#263238" stroke-linecap="round" stroke-linejoin="round" stroke-width="0.528"/>
      <path id="Path_24759" data-name="Path 24759" d="M96.751,442.59a33.081,33.081,0,0,0-4.331-16.88C87.679,418.171,82.242,408.23,80,404.31" transform="translate(513.885 -159.091)" fill="none" stroke="#263238" stroke-linecap="round" stroke-linejoin="round" stroke-width="0.528"/>
      <path id="Path_24760" data-name="Path 24760" d="M70.67,343.771s.427-4.915-5.832-12.423S54.485,319.51,54.485,319.51s-4.457,11.064,1.328,18.476a121.13,121.13,0,0,0,14.051,14.651Z" transform="translate(582.878 -208.32)" fill="#92e3a9"/>
      <path id="Path_24761" data-name="Path 24761" d="M78.74,362.651s.443-4.931-5.832-12.423S62.555,338.39,62.555,338.39s-4.457,11.064,1.328,18.461A121.981,121.981,0,0,0,77.949,371.5Z" transform="translate(562.053 -197.359)" fill="#92e3a9"/>
      <path id="Path_24762" data-name="Path 24762" d="M41.151,347.025s.948-4.852,9.072-10.289,13.261-8.456,13.261-8.456,1.185,11.822-6.449,17.386a122.89,122.89,0,0,1-17.607,10.115Z" transform="translate(611.212 -203.228)" fill="#92e3a9"/>
      <path id="Path_24763" data-name="Path 24763" d="M50.687,368.411s1.454-4.742,10.115-9.278S74.869,352.1,74.869,352.1s0,11.886-8.235,16.6A122.658,122.658,0,0,1,48,376.9Z" transform="translate(586.344 -189.4)" fill="#92e3a9"/>
      <path id="Path_24764" data-name="Path 24764" d="M51.919,395.3s.443-4.931,7.9-11.19S72.1,374.29,72.1,374.29s2.434,11.617-4.584,17.939a120.13,120.13,0,0,1-16.438,11.917Z" transform="translate(583.832 -176.518)" fill="#92e3a9"/>
      <path id="Path_24765" data-name="Path 24765" d="M80.319,403.363s1.138-4.742-4-13.118S67.753,377,67.753,377s-5.974,10.258-1.312,18.476a122.022,122.022,0,0,0,11.87,16.548Z" transform="translate(554.452 -174.945)" fill="#92e3a9"/>
      <path id="Path_24766" data-name="Path 24766" d="M92.619,426.029s-.964-4.852-9.1-10.289-13.261-8.44-13.261-8.44-1.17,11.822,6.48,17.386A120.864,120.864,0,0,0,94.357,434.77Z" transform="translate(531.784 -157.355)" fill="#92e3a9"/>
      <path id="Path_24767" data-name="Path 24767" d="M58.412,419.125s.443-4.931,7.9-11.206,12.281-9.8,12.281-9.8,2.434,11.617-4.584,17.939a121.7,121.7,0,0,1-16.39,11.9Z" transform="translate(567.002 -162.684)" fill="#92e3a9"/>
      <path id="Path_24768" data-name="Path 24768" d="M58.672,437.438s-.822-4.868,4.852-12.834,9.483-12.644,9.483-12.644,5.295,10.621.111,18.508a121.611,121.611,0,0,1-12.881,15.695Z" transform="translate(569.019 -154.65)" fill="#92e3a9"/>
      <path id="Path_24769" data-name="Path 24769" d="M82.124,334.1a140.451,140.451,0,0,1-3.256,15.11c-3.983,13.83-11.6,22.285-15.458,34.772s2.481,29.524-1.075,45.661-10.716,24.64-9.878,35.7,7.729,41.394,7.729,41.394" transform="translate(572.151 -199.85)" fill="none" stroke="#263238" stroke-linecap="round" stroke-linejoin="round" stroke-width="0.528"/>
      <line id="Line_80" data-name="Line 80" y1="5.042" x2="7.934" transform="translate(651.999 142.026)" fill="none" stroke="#263238" stroke-linecap="round" stroke-linejoin="round" stroke-width="0.528"/>
      <line id="Line_81" data-name="Line 81" x1="2.608" y1="5.801" transform="translate(650.323 134.724)" fill="none" stroke="#263238" stroke-linecap="round" stroke-linejoin="round" stroke-width="0.528"/>
      <path id="Path_24770" data-name="Path 24770" d="M55.44,368.307s6.638-4.094,13.435-8.187" transform="translate(580.58 -184.744)" fill="none" stroke="#263238" stroke-linecap="round" stroke-linejoin="round" stroke-width="0.528"/>
      <path id="Path_24771" data-name="Path 24771" d="M70.9,365.906A98.82,98.82,0,0,0,61.42,348.03" transform="translate(569.099 -191.763)" fill="none" stroke="#263238" stroke-linecap="round" stroke-linejoin="round" stroke-width="0.528"/>
      <path id="Path_24772" data-name="Path 24772" d="M54.93,398.1a77.586,77.586,0,0,1,14.889-16.6" transform="translate(580.442 -172.333)" fill="none" stroke="#263238" stroke-linecap="round" stroke-linejoin="round" stroke-width="0.528"/>
      <path id="Path_24773" data-name="Path 24773" d="M74.63,403.588a86.794,86.794,0,0,0-5.516-13.371c-3.161-5.69-3.6-6.417-3.6-6.417" transform="translate(558.909 -170.998)" fill="none" stroke="#263238" stroke-linecap="round" stroke-linejoin="round" stroke-width="0.528"/>
      <path id="Path_24774" data-name="Path 24774" d="M86.359,427.228a71.452,71.452,0,0,0-9.673-8.551,48.055,48.055,0,0,1-6.2-4.568" transform="translate(539.309 -153.402)" fill="none" stroke="#263238" stroke-linecap="round" stroke-linejoin="round" stroke-width="0.528"/>
      <path id="Path_24775" data-name="Path 24775" d="M61.87,424.352a82.182,82.182,0,0,1,6.575-10.827,72.181,72.181,0,0,1,8.108-8.835" transform="translate(562.738 -158.87)" fill="none" stroke="#263238" stroke-linecap="round" stroke-linejoin="round" stroke-width="0.528"/>
      <path id="Path_24776" data-name="Path 24776" d="M61.421,442.547a21.148,21.148,0,0,1,2.829-10.732c3.035-4.742,6.559-11.064,8-13.545" transform="translate(567.755 -150.987)" fill="none" stroke="#263238" stroke-linecap="round" stroke-linejoin="round" stroke-width="0.528"/>
    </g>
    <g id="freepik--Character--inject-34" transform="translate(207.79 271.576)">
      <ellipse id="Ellipse_102" data-name="Ellipse 102" cx="19.219" cy="22.017" rx="19.219" ry="22.017" transform="translate(34.561 39.483)" fill="#263238" stroke="#263238" stroke-linejoin="round" stroke-width="1.055"/>
      <path id="Path_24777" data-name="Path 24777" d="M313.945,347.956A60.913,60.913,0,0,0,330.7,341.05c8.867-5.247,9.2-13.466,6.575-19.709s-27.6-32.511-52.9-38.107-44.35,12.154-52.553,32.527-1.976,43.686,3.6,50.577,19.725,11.822,25.968,7.223,16.422-18.4,28.576-23.977a35.657,35.657,0,0,1,23.977-1.628Z" transform="translate(-166.376 -282.189)" fill="#263238" stroke="#263238" stroke-linejoin="round" stroke-width="1.055"/>
      <path id="Path_24778" data-name="Path 24778" d="M316.093,297.62s-24.277,27.312-63.743,24.309" transform="translate(-182.464 -273.231)" fill="none" stroke="#636363" stroke-width="1.055"/>
      <path id="Path_24779" data-name="Path 24779" d="M316.309,297.8,302.953,286.86s-33.381.616-47.953,33.4" transform="translate(-186.869 -279.477)" fill="none" stroke="#636363" stroke-width="1.055"/>
      <path id="Path_24780" data-name="Path 24780" d="M230.315,304.53s27.312,12.138,19.425,17.607-12.755,1.217-12.755,1.217" transform="translate(-82.715 -269.219)" fill="none" stroke="#636363" stroke-width="1.055"/>
      <path id="Path_24781" data-name="Path 24781" d="M253.561,305.456s-4.252-6.686-20.041-6.686" transform="translate(-90.171 -272.563)" fill="none" stroke="#636363" stroke-width="1.055"/>
      <path id="Path_24782" data-name="Path 24782" d="M323.294,301.84a61.246,61.246,0,0,1-39.513,27.327c-27.327,5.469-36.431-1.217-36.431-1.217" transform="translate(-181.763 -270.781)" fill="none" stroke="#636363" stroke-width="1.055"/>
      <path id="Path_24783" data-name="Path 24783" d="M322.5,408.008c.253,17.512,15.552,66.635,22.839,89.079H268.524L248.91,368.258l18.4-8.867s14.13-6.575,23.708-4.283,21.685,9.483,21.685,9.483l10.179,3.619S322.183,385.012,322.5,408.008Z" transform="translate(-206.273 -240.139)" fill="#fff"/>
      <g id="Group_12404" data-name="Group 12404" transform="translate(42.637 114.484)" clip-path="url(#clip-path)">
        <path id="Path_24784" data-name="Path 24784" d="M274.166,493.884c-1.581-6.954-4.852-21.179-10.163-44.255-8.013-34.772-8.693-89.49-8.693-89.49.585,14.383,23.455,108.029,29.777,133.729Z" transform="translate(-198.774 -351.421)" opacity="0.2"/>
      </g>
      <path id="Path_24786" data-name="Path 24786" d="M322.5,408.008c.253,17.512,15.552,66.635,22.839,89.079H268.524L248.91,368.258l18.4-8.867s14.13-6.575,23.708-4.283,21.685,9.483,21.685,9.483l10.179,3.619S322.183,385.012,322.5,408.008Z" transform="translate(-206.273 -240.139)" fill="none" stroke="#263238" stroke-linejoin="round" stroke-width="1.055"/>
      <path id="Path_24787" data-name="Path 24787" d="M312.5,364.352s-6.164,6.733-7.286,11.775,2.8,24.688-6.733,29.73-20.183-4.489-25.794-15.711-2.813-17.892-2.813-17.892,13.466-13.466,19.63-23.55a87.458,87.458,0,0,0,8.977-20.7s3.367,18.508,7.9,25.288A61.131,61.131,0,0,1,312.5,364.352Z" transform="translate(-205.476 -255.594)" fill="#fff"/>
      <g id="Group_12405" data-name="Group 12405" transform="translate(63.704 72.406)" clip-path="url(#clip-path-2)">
        <path id="Path_24788" data-name="Path 24788" d="M287.756,362.419l.964,1.122a31.345,31.345,0,0,0-3.683,6.085,22.648,22.648,0,0,1-10.637-8.551c-3.288-4.852-3.6-14.335-3.319-21.179.759-1.486,1.47-2.94,2.086-4.346C275.839,342.014,281.8,355.465,287.756,362.419Z" transform="translate(-248.272 -323.617)" opacity="0.2"/>
      </g>
      <path id="Path_24790" data-name="Path 24790" d="M312.5,364.352s-6.164,6.733-7.286,11.775,2.8,24.688-6.733,29.73-20.183-4.489-25.794-15.711-2.813-17.892-2.813-17.892,13.466-13.466,19.63-23.55a87.458,87.458,0,0,0,8.977-20.7s3.367,18.508,7.9,25.288A61.131,61.131,0,0,1,312.5,364.352Z" transform="translate(-205.476 -255.594)" fill="none" stroke="#263238" stroke-linecap="round" stroke-linejoin="round" stroke-width="1.055"/>
      <path id="Path_24791" data-name="Path 24791" d="M305.226,308.41s-25.289,19.63-37.569,24.119-26.869,2.244-26.869,2.244a7.286,7.286,0,0,0,1.691,6.733,46.336,46.336,0,0,1,5.042,6.164s-.553,16.817,5.042,25.288,12.913,12.9,23,8.962,18.508-8.962,23.566-17.386,4.473-16.817,6.717-22.428l6.733-16.817S309.715,312.9,305.226,308.41Z" transform="translate(-160.312 -266.967)" fill="#fff" stroke="#263238" stroke-linecap="round" stroke-linejoin="round" stroke-width="1.055"/>
      <path id="Path_24792" data-name="Path 24792" d="M263.512,326.71s-1.328,18.065-3.287,18.729-7.555-1.312-7.555-1.312" transform="translate(-130.39 -256.343)" fill="none" stroke="#263238" stroke-linecap="round" stroke-linejoin="round" stroke-width="1.055"/>
      <path id="Path_24793" data-name="Path 24793" d="M268.712,344.023s-7.9.664-10.842-5.263" transform="translate(-143.809 -249.348)" fill="none" stroke="#263238" stroke-linecap="round" stroke-linejoin="round" stroke-width="1.055"/>
      <path id="Path_24794" data-name="Path 24794" d="M248.655,330.174c-.664,2.07-.285,4.046.838,4.41s2.56-1.043,3.161-3.161.3-4.046-.822-4.394S249.319,328.1,248.655,330.174Z" transform="translate(-112.972 -256.188)" fill="#263238"/>
      <path id="Path_24795" data-name="Path 24795" d="M258.54,326.852c-.664,2.086-.284,4.046.838,4.41s2.576-1.027,3.24-3.161.284-4.046-.838-4.41S259.157,324.781,258.54,326.852Z" transform="translate(-138.583 -258.129)" fill="#263238"/>
      <path id="Path_24796" data-name="Path 24796" d="M252.168,326.479s.332-3.936-6.559-3.272" transform="translate(-107.886 -258.42)" fill="none" stroke="#263238" stroke-linecap="round" stroke-linejoin="round" stroke-width="1.055"/>
      <path id="Path_24797" data-name="Path 24797" d="M263.613,323.278a7.3,7.3,0,0,0-9.483-2.956" transform="translate(-132.798 -260.466)" fill="none" stroke="#263238" stroke-linecap="round" stroke-linejoin="round" stroke-width="1.055"/>
      <path id="Path_24798" data-name="Path 24798" d="M241.735,329.86c-2.687,6.449-.853,13.34,4.078,15.41s11.064-1.5,13.814-7.9.869-13.34-4.078-15.41S244.422,323.412,241.735,329.86Z" transform="translate(-108.533 -259.446)" fill="none" stroke="#263238" stroke-linejoin="round" stroke-width="1.055"/>
      <path id="Path_24799" data-name="Path 24799" d="M255.455,325.122c-2.687,6.449-.853,13.34,4.078,15.41s11.064-1.5,13.814-7.9.869-13.34-4.078-15.41S258.142,318.611,255.455,325.122Z" transform="translate(-143.938 -262.2)" fill="none" stroke="#263238" stroke-linejoin="round" stroke-width="1.055"/>
      <line id="Line_82" data-name="Line 82" x1="3.936" y1="1.96" transform="translate(130.167 66.099)" fill="none" stroke="#263238" stroke-linejoin="round" stroke-width="1.055"/>
      <path id="Path_24800" data-name="Path 24800" d="M298.888,496.288c-5.911-33.57-22.127-127.6-18.287-129.493,4.536-2.292,53.3-10.8,53.3-10.8s5.516,39.719,12.739,76.182c4.742,24.214,9.878,49.708,12.755,64.122Z" transform="translate(-269.496 -239.34)" fill="#92e3a9" stroke="#263238" stroke-linejoin="round" stroke-width="1.055"/>
      <path id="Path_24801" data-name="Path 24801" d="M234.052,367.2s9.056,7.618,9.625,13.245,10.115,73.1,10.115,73.1,2.244-2.8,5.058-1.675a10.574,10.574,0,0,1,4.5,3.935s1.012-3.683,3.936-1.122,5.058,12.36,5.058,12.36-4.489,14.636-7.9,16.88-8.44-1.122-8.44-1.122.569,2.244-5.611,2.244-7.318-9.562-9.562-13.5-9.009-46.12-12.376-69.18S234.052,367.2,234.052,367.2Z" transform="translate(-99.759 -232.838)" fill="#92e3a9" stroke="#263238" stroke-linecap="round" stroke-linejoin="round" stroke-width="1.055"/>
      <path id="Path_24802" data-name="Path 24802" d="M292.835,494.854h-28.45c-2.813-11.064-7.286-29.113-11.886-48.348-7.571-31.532-11.57-88.035-11.57-88.035l34.55,13.8a401.326,401.326,0,0,0,.664,57.152C277.93,450.978,287.224,479.286,292.835,494.854Z" transform="translate(-141.156 -237.906)" fill="#92e3a9" stroke="#263238" stroke-linejoin="round" stroke-width="1.055"/>
      <path id="Path_24803" data-name="Path 24803" d="M322.487,371.612l19.678,81.555,8.44-2.244,3.935,3.367s2.813-3.936,5.627.569a29.034,29.034,0,0,0,5.627,6.749l-3.936,23.06s-16.706,6.844-19.124,6.18a6.86,6.86,0,0,1-5.058-7.9,17.683,17.683,0,0,1-6.749,2.244c-1.47,0-5.421-2.766-8.835-5.421a22.633,22.633,0,0,1-7.9-11.3c-5.927-19.124-22.839-73.748-25.526-81.129-6.749-18.571,10.684-25.288,12.929-25.288" transform="translate(-287.12 -235.827)" fill="#92e3a9" stroke="#263238" stroke-linecap="round" stroke-linejoin="round" stroke-width="1.055"/>
      <path id="Path_24804" data-name="Path 24804" d="M165.913,429.03s12.455,5.848,11.364,6.954-9.483-2.924-11.364-3.3S161.883,428.335,165.913,429.03Z" transform="translate(96.513 -196.991)" fill="#fff" stroke="#263238" stroke-linecap="round" stroke-linejoin="round" stroke-width="1.055"/>
      <path id="Path_24805" data-name="Path 24805" d="M168.532,426.535s4.03-.743,4.742,1.091,4.03,11.728,3.667,13.924-3.667-2.2-5.137-4.394S168.532,426.535,168.532,426.535Z" transform="translate(89.136 -198.479)" fill="#fff" stroke="#263238" stroke-linecap="round" stroke-linejoin="round" stroke-width="1.055"/>
      <path id="Path_24806" data-name="Path 24806" d="M169.427,426.779s6.591-1.833,7.7,0,6.954,14.652,6.954,14.652.727,1.47-2.56,0S169.427,426.779,169.427,426.779Z" transform="translate(80.545 -198.723)" fill="#fff" stroke="#263238" stroke-linecap="round" stroke-linejoin="round" stroke-width="1.055"/>
      <path id="Path_24807" data-name="Path 24807" d="M180.563,427.317l41.773,3.983s28.94-5.864,32.243-6.227,6.591,2.2,8.045,4.394,10.637,13.924,10.637,13.924l-2.2.727L258.23,433.861s-6.954-.364-9.151-.364,6.227,4.742,8.788,5.121,5.5.743,5.137,2.2-6.97,1.833-8.424,1.833-11.728-3.667-11.728-3.667a56.872,56.872,0,0,0-5.864.379c-3.3.364-9.167-2.213-9.167-2.213s-52.015,12.47-55.682,12.091S168.2,429.72,180.563,427.317Z" transform="translate(-9.365 -199.261)" fill="#fff" stroke="#263238" stroke-linecap="round" stroke-linejoin="round" stroke-width="1.055"/>
      <path id="Path_24808" data-name="Path 24808" d="M243.266,427.777s7.334,4.03,10.637,4.394,2.924,3.3,0,4.41-13.2-4.03-15.394-4.03S219.1,434,215.433,434.384s-5.864-3.3,3.288-6.227S243.266,427.777,243.266,427.777Z" transform="translate(-59.25 -198.267)" fill="#fff" stroke="#263238" stroke-linecap="round" stroke-linejoin="round" stroke-width="1.055"/>
      <path id="Path_24809" data-name="Path 24809" d="M215.054,424.312s6.8-1.581,7.666,1.249,8.819,14.067,9.009,15.141-2.639,1.96-5.864-1.581S215.054,424.312,215.054,424.312Z" transform="translate(-39.162 -199.938)" fill="#fff" stroke="#263238" stroke-linecap="round" stroke-linejoin="round" stroke-width="1.055"/>
      <path id="Path_24810" data-name="Path 24810" d="M217.124,423.47s5.864-1.47,7.334,0,11.712,18.682,11.712,20.152-4.03.727-4.03.727l-11.712-16.121-3.667-3.287Z" transform="translate(-46.289 -200.551)" fill="#fff" stroke="#263238" stroke-linecap="round" stroke-linejoin="round" stroke-width="1.055"/>
      <path id="Path_24811" data-name="Path 24811" d="M227.223,449.864a10.021,10.021,0,0,1-8.8-9.483c-.727-8.788,8.8-17.212,15.394-17.576s37.364,6.591,49.818,6.954,23.455.364,26.016-.727,24.182-5.5,25.652-5.5,16.485,20.879,16.485,20.879-1.106,2.576-4.03,0S335.3,433.063,335.3,433.063H324.678s9.894,5.864,11.348,6.954,7.334,7.334,5.864,7.7-9.151-6.227-9.151-6.227l-11.064-2.94s-8.061,5.137-15.379,5.5a33.507,33.507,0,0,1-12.834-1.833S251.026,450.227,227.223,449.864Z" transform="translate(-164.465 -200.565)" fill="#fff" stroke="#263238" stroke-linecap="round" stroke-linejoin="round" stroke-width="1.055"/>
    </g>
    <g id="freepik--Device--inject-34" transform="translate(33.168 429.757)">
      <line id="Line_83" data-name="Line 83" x2="635.547" transform="translate(0 98.562)" fill="none" stroke="#263238" stroke-linejoin="round" stroke-width="1.055"/>
      <rect id="Rectangle_17882" data-name="Rectangle 17882" width="196.839" height="7.223" transform="translate(299.4 91.339)" fill="#fff" stroke="#263238" stroke-linejoin="round" stroke-width="1.055"/>
      <rect id="Rectangle_17883" data-name="Rectangle 17883" width="92.477" height="7.223" transform="translate(299.4 91.339)" fill="#263238" stroke="#263238" stroke-linejoin="round" stroke-width="1.055"/>
      <path id="Path_24812" data-name="Path 24812" d="M107.55,473.609l36.384-91.339H257.369l-45.456,91.339Z" transform="translate(279.743 -382.27)" fill="#263238" stroke="#263238" stroke-linejoin="round" stroke-width="1.055"/>
      <path id="Path_24813" data-name="Path 24813" d="M104.65,473.609l36.384-91.339H254.469l-45.456,91.339Z" transform="translate(287.227 -382.27)" fill="#fff" stroke="#263238" stroke-linejoin="round" stroke-width="1.055"/>
    </g>
  </g>
</svg>
