<svg id="coin_not" xmlns="http://www.w3.org/2000/svg" width="23" height="23" viewBox="0 0 23 23">
  <circle id="Ellipse_696" data-name="Ellipse 696" cx="11.5" cy="11.5" r="11.5" fill="#9ba1a9"/>
  <g id="noun_coin_616659" transform="translate(3.766 3.766)">
    <path id="Path_25535" data-name="Path 25535" d="M59.1,55.24a4.222,4.222,0,1,0,4.223,4.222A4.227,4.227,0,0,0,59.1,55.24Zm0,8.077a3.855,3.855,0,1,1,3.856-3.855A3.86,3.86,0,0,1,59.1,63.317Z" transform="translate(-51.657 -51.917)" fill="#fff"/>
    <path id="Path_25536" data-name="Path 25536" d="M90.494,73.515a1.15,1.15,0,0,0-.782-.267v-1.63c.413.012.62.1.62.812a.183.183,0,1,0,.367,0c0-1.039-.507-1.163-.987-1.178v-.465a.183.183,0,0,0-.367,0v.469c-1,.065-1,.677-1,1.174v.013a1.351,1.351,0,0,0,.158.8,1.024,1.024,0,0,0,.841.361v1.628c-.4-.013-.607-.109-.607-.811a.183.183,0,0,0-.367,0c0,1.029.5,1.161.974,1.178v.517a.183.183,0,0,0,.367,0V75.6a1.147,1.147,0,0,0,.778-.267,1.1,1.1,0,0,0,.218-.834v-.161A1.079,1.079,0,0,0,90.494,73.515Zm-1.69-.48a1.106,1.106,0,0,1-.091-.591v-.013c0-.5,0-.766.632-.807v1.614A.7.7,0,0,1,88.8,73.035Zm1.537,1.3V74.5c0,.285,0,.465-.111.573a.825.825,0,0,1-.518.158V73.616a.831.831,0,0,1,.522.157C90.339,73.88,90.343,74.056,90.342,74.335Z" transform="translate(-82.053 -65.871)" fill="#fff"/>
    <path id="Path_25537" data-name="Path 25537" d="M21.995,98.557a.184.184,0,0,0-.183-.183H19.934a.183.183,0,0,0,0,.367h1.877A.184.184,0,0,0,21.995,98.557Z" transform="translate(-19.751 -91.093)" fill="#fff"/>
    <path id="Path_25538" data-name="Path 25538" d="M43.38,43.218a.183.183,0,1,0,.259-.259l-1.327-1.327a.183.183,0,1,0-.259.259Z" transform="translate(-39.958 -39.508)" fill="#fff"/>
    <path id="Path_25539" data-name="Path 25539" d="M99.218,21.262a.184.184,0,0,0,.184-.183V19.2a.183.183,0,1,0-.367,0v1.877A.183.183,0,0,0,99.218,21.262Z" transform="translate(-91.761 -19.018)" fill="#fff"/>
    <path id="Path_25540" data-name="Path 25540" d="M141.234,44.834a.183.183,0,0,0,.13-.054l1.327-1.327a.183.183,0,0,0-.259-.259L141.1,44.521a.183.183,0,0,0,.13.313Z" transform="translate(-129.921 -40.927)" fill="#fff"/>
    <path id="Path_25541" data-name="Path 25541" d="M161.547,99.032H159.67a.183.183,0,1,0,0,.367h1.877a.183.183,0,1,0,0-.367Z" transform="translate(-146.667 -91.691)" fill="#fff"/>
    <path id="Path_25542" data-name="Path 25542" d="M142.253,141.588a.183.183,0,1,0-.259.259l1.327,1.327a.183.183,0,1,0,.259-.259Z" transform="translate(-130.73 -130.294)" fill="#fff"/>
    <path id="Path_25543" data-name="Path 25543" d="M99.55,158.1a.184.184,0,0,0-.184.183v1.877a.183.183,0,0,0,.367,0v-1.877A.184.184,0,0,0,99.55,158.1Z" transform="translate(-92.062 -145.344)" fill="#fff"/>
    <path id="Path_25544" data-name="Path 25544" d="M44.27,140.027l-1.327,1.327a.183.183,0,1,0,.259.259l1.327-1.327a.183.183,0,1,0-.259-.259Z" transform="translate(-40.766 -128.876)" fill="#fff"/>
  </g>
</svg>
