<svg id="Coin_icon" xmlns="http://www.w3.org/2000/svg" width="32.625" height="32.625" viewBox="0 0 32.625 32.625">
  <ellipse id="Ellipse_180" data-name="Ellipse 180" cx="16.312" cy="16.312" rx="16.312" ry="16.312" fill="#a2ba60"/>
  <g id="noun_coin_616659" transform="translate(5.032 5.077)">
    <path id="Path_25535" data-name="Path 25535" d="M61.2,55.24a6.323,6.323,0,1,0,6.324,6.323A6.331,6.331,0,0,0,61.2,55.24Zm0,12.1a5.774,5.774,0,1,1,5.774-5.774A5.78,5.78,0,0,1,61.2,67.337Z" transform="translate(-50.053 -50.263)" fill="#fff"/>
    <path id="Path_25536" data-name="Path 25536" d="M91.563,74.963a1.723,1.723,0,0,0-1.171-.4V72.123c.618.017.928.153.928,1.216a.275.275,0,0,0,.55,0c0-1.556-.759-1.742-1.478-1.765v-.7a.275.275,0,0,0-.55,0v.7c-1.495.1-1.5,1.014-1.5,1.759v.019a2.023,2.023,0,0,0,.236,1.2,1.534,1.534,0,0,0,1.26.54v2.438c-.6-.02-.909-.163-.909-1.215a.275.275,0,0,0-.55,0c0,1.542.745,1.739,1.459,1.764v.774a.275.275,0,1,0,.55,0v-.777a1.717,1.717,0,0,0,1.166-.4,1.643,1.643,0,0,0,.327-1.249v-.241A1.617,1.617,0,0,0,91.563,74.963Zm-2.53-.719a1.656,1.656,0,0,1-.137-.885V73.34c0-.745,0-1.148.946-1.209v2.417A1.041,1.041,0,0,1,89.032,74.245Zm2.3,1.947v.247c0,.426-.005.7-.167.858a1.236,1.236,0,0,1-.776.237V75.115a1.245,1.245,0,0,1,.782.236C91.331,75.51,91.337,75.774,91.335,76.191Z" transform="translate(-78.921 -63.516)" fill="#fff"/>
    <path id="Path_25537" data-name="Path 25537" d="M23.111,98.649a.275.275,0,0,0-.275-.275h-2.81a.275.275,0,0,0,0,.55h2.81A.275.275,0,0,0,23.111,98.649Z" transform="translate(-19.751 -87.47)" fill="#fff"/>
    <path id="Path_25538" data-name="Path 25538" d="M44.067,44.035a.275.275,0,0,0,.389-.389l-1.987-1.987a.275.275,0,0,0-.389.389Z" transform="translate(-38.942 -38.478)" fill="#fff"/>
    <path id="Path_25539" data-name="Path 25539" d="M99.31,22.378a.275.275,0,0,0,.275-.275v-2.81a.275.275,0,0,0-.55,0V22.1A.275.275,0,0,0,99.31,22.378Z" transform="translate(-88.141 -19.018)" fill="#fff"/>
    <path id="Path_25540" data-name="Path 25540" d="M141.325,45.677a.274.274,0,0,0,.194-.081l1.987-1.987a.275.275,0,1,0-.389-.389l-1.987,1.987a.275.275,0,0,0,.194.469Z" transform="translate(-124.383 -39.826)" fill="#fff"/>
    <path id="Path_25541" data-name="Path 25541" d="M162.572,99.032h-2.811a.275.275,0,1,0,0,.55h2.811a.275.275,0,1,0,0-.55Z" transform="translate(-140.287 -88.038)" fill="#fff"/>
    <path id="Path_25542" data-name="Path 25542" d="M142.409,141.615a.275.275,0,0,0-.389.389l1.987,1.988a.275.275,0,1,0,.389-.389Z" transform="translate(-125.151 -124.7)" fill="#fff"/>
    <path id="Path_25543" data-name="Path 25543" d="M99.642,158.1a.275.275,0,0,0-.275.275v2.811a.275.275,0,1,0,.55,0V158.38A.275.275,0,0,0,99.642,158.1Z" transform="translate(-88.428 -138.994)" fill="#fff"/>
    <path id="Path_25544" data-name="Path 25544" d="M44.957,140.053l-1.987,1.987a.275.275,0,1,0,.389.389l1.987-1.987a.275.275,0,1,0-.389-.389Z" transform="translate(-39.71 -123.353)" fill="#fff"/>
  </g>
</svg>
