<svg xmlns="http://www.w3.org/2000/svg" width="23" height="22" viewBox="0 0 23 22">
  <g id="credit_ac" transform="translate(-173 -249)">
    <ellipse id="Ellipse_181" data-name="Ellipse 181" cx="11.5" cy="11" rx="11.5" ry="11" transform="translate(173 249)" fill="#a2ba60"/>
    <g id="noun_credit_2127380" transform="translate(177.003 255.148)">
      <g id="Group_12563" data-name="Group 12563" transform="translate(0 0)">
        <g id="Group_12562" data-name="Group 12562" transform="translate(0 0)">
          <g id="Group_12561" data-name="Group 12561">
            <g id="Group_12541" data-name="Group 12541" transform="translate(0)">
              <g id="Group_12523" data-name="Group 12523" transform="translate(0 2.543)">
                <path id="Path_25545" data-name="Path 25545" d="M26.81,176.844H12.054a.155.155,0,0,1-.154-.158v-2.427a.155.155,0,0,1,.154-.158H26.81a.155.155,0,0,1,.154.158v2.427A.155.155,0,0,1,26.81,176.844Zm-14.6-.317H26.656v-2.11H12.208Z" transform="translate(-11.9 -174.1)" fill="#fff"/>
              </g>
              <g id="Group_12524" data-name="Group 12524" transform="translate(10.063 6.307)">
                <path id="Path_25546" data-name="Path 25546" d="M341.626,301.462a1.233,1.233,0,0,1-.615-.165,0,0,0,0,1,0,0c-.025-.016-.054-.032-.076-.048a0,0,0,0,1,0,0,.78.78,0,0,1-.086-.067l-.082-.073.108-.114-.111.114,0,0a.96.96,0,0,1-.079-.089,1.155,1.155,0,0,1-.13-.193.546.546,0,0,1-.041-.086c-.006-.016-.016-.032-.022-.051s-.019-.051-.025-.073v0c-.013-.044-.025-.086-.035-.127v-.009l0-.013a1,1,0,0,1-.013-.1c0-.041-.006-.086-.006-.127s0-.086.006-.127a.984.984,0,0,1,.016-.108c0-.006,0-.013,0-.019a.686.686,0,0,1,.025-.1.045.045,0,0,1,.006-.022.581.581,0,0,1,.035-.089l0-.013s0-.01,0-.013a.948.948,0,0,1,.051-.1,1.522,1.522,0,0,1,.108-.168.254.254,0,0,1,.025-.029,1.2,1.2,0,0,1,.333-.285,1.23,1.23,0,1,1,.611,2.3Zm-.453-.437a.906.906,0,0,0,.453.12.916.916,0,0,0,0-1.831.926.926,0,0,0-.456.12.866.866,0,0,0-.25.215s-.006.009-.013.013l0,0a.812.812,0,0,0-.082.13.478.478,0,0,0-.035.07l0,.01s0,.006,0,.01c-.01.022-.016.044-.025.063,0,0,0,.006,0,.013v0c-.006.025-.013.048-.019.073,0,.006,0,.01,0,.016,0,.028-.01.06-.013.089a.837.837,0,0,0-.006.092c0,.032,0,.063.006.1s.006.054.013.086v.01c.006.029.016.06.025.089v0c.006.019.013.038.019.054s0,0,0,.006a.235.235,0,0,1,.013.029s0,.01.006.013c.006.019.016.035.022.051s0,0,0,.006a.906.906,0,0,0,.1.146l0,0c.016.019.032.038.054.06l.006.006c.016.016.038.035.06.054a.666.666,0,0,0,.06.047A.479.479,0,0,1,341.173,301.025Z" transform="translate(-340.4 -299)" fill="#fff"/>
              </g>
              <g id="Group_12525" data-name="Group 12525" transform="translate(10.488 8.209)">
                <path id="Path_25547" data-name="Path 25547" d="M352.9,359.383a.168.168,0,0,1-.086-.025.757.757,0,0,1-.1-.073.158.158,0,0,1,.209-.238l.054.044a.164.164,0,0,1,.076.136.16.16,0,0,1-.155.158Z" transform="translate(-352.666 -359.009)" fill="#fff"/>
              </g>
              <g id="Group_12526" data-name="Group 12526" transform="translate(10.415 8.146)">
                <path id="Path_25548" data-name="Path 25548" d="M350.541,357.4a.165.165,0,0,1-.1-.032c-.022-.019-.057-.048-.092-.082a.162.162,0,0,1,.006-.222.159.159,0,0,1,.222,0c.016.016.035.032.054.048a.164.164,0,0,1,.067.127.159.159,0,0,1-.158.158Z" transform="translate(-350.31 -357.024)" fill="#fff"/>
              </g>
              <g id="Group_12527" data-name="Group 12527" transform="translate(10.346 8.111)">
                <path id="Path_25549" data-name="Path 25549" d="M348.274,354.738a.143.143,0,0,1-.079-.022h0a.242.242,0,0,1-.035-.025h0a.935.935,0,0,1-.079-.089.158.158,0,1,1,.25-.193.438.438,0,0,0,.054.06h0l0,0h0a.157.157,0,0,1-.009.215h0a.16.16,0,0,1-.086.044C348.29,354.738,348.28,354.738,348.274,354.738Z" transform="translate(-348.047 -354.347)" fill="#fff"/>
              </g>
              <g id="Group_12528" data-name="Group 12528" transform="translate(10.33 6.794)">
                <path id="Path_25550" data-name="Path 25550" d="M347.658,311.82a.189.189,0,0,1-.089-.025.157.157,0,0,1-.07-.133.189.189,0,0,1,.025-.089.245.245,0,0,1,.032-.038.158.158,0,0,1,.272.111.164.164,0,0,1-.044.111l0,0A.161.161,0,0,1,347.658,311.82Z" transform="translate(-347.5 -311.487)" fill="#fff"/>
              </g>
              <g id="Group_12529" data-name="Group 12529" transform="translate(10.203 7.875)">
                <path id="Path_25551" data-name="Path 25551" d="M343.59,347.054a.157.157,0,0,1-.136-.079.663.663,0,0,1-.044-.095.18.18,0,0,1-.01-.057.159.159,0,0,1,.307-.057c.006.019.016.035.022.051a.15.15,0,0,1,.022.079.157.157,0,0,1-.079.136A.161.161,0,0,1,343.59,347.054Z" transform="translate(-343.4 -346.663)" fill="#fff"/>
              </g>
              <g id="Group_12530" data-name="Group 12530" transform="translate(10.193 6.955)">
                <path id="Path_25552" data-name="Path 25552" d="M343.23,317.18a.142.142,0,0,1-.063-.013.158.158,0,0,1-.079-.209.147.147,0,0,1,.016-.032.536.536,0,0,1,.038-.073.162.162,0,0,1,.215-.057.156.156,0,0,1,.06.212c-.009.019-.019.035-.029.054l-.013.025A.164.164,0,0,1,343.23,317.18Z" transform="translate(-343.074 -316.777)" fill="#fff"/>
              </g>
              <g id="Group_12531" data-name="Group 12531" transform="translate(10.153 7.053)">
                <path id="Path_25553" data-name="Path 25553" d="M341.935,320.377a.143.143,0,0,1-.051-.009.161.161,0,0,1-.1-.2h0a.807.807,0,0,1,.038-.1.156.156,0,0,1,.206-.079.158.158,0,0,1,.086.2c-.01.025-.022.054-.029.076A.152.152,0,0,1,341.935,320.377Z" transform="translate(-341.775 -319.974)" fill="#fff"/>
              </g>
              <g id="Group_12532" data-name="Group 12532" transform="translate(10.16 7.768)">
                <path id="Path_25554" data-name="Path 25554" d="M342.157,343.56a.156.156,0,0,1-.143-.092.608.608,0,0,1-.032-.089.157.157,0,0,1,.1-.2.161.161,0,0,1,.2.1v0c.006.016.01.029.016.041a.188.188,0,0,1,.016.073.157.157,0,0,1-.149.158S342.16,343.56,342.157,343.56Z" transform="translate(-341.975 -343.175)" fill="#fff"/>
              </g>
              <g id="Group_12533" data-name="Group 12533" transform="translate(10.13 7.14)">
                <path id="Path_25555" data-name="Path 25555" d="M341.158,323.208a.13.13,0,0,1-.035,0,.159.159,0,0,1-.124-.155.13.13,0,0,1,0-.035q.014-.057.029-.1v0a.16.16,0,0,1,.2-.108.156.156,0,0,1,.114.152.218.218,0,0,1-.006.044v0a.853.853,0,0,0-.022.086A.158.158,0,0,1,341.158,323.208Z" transform="translate(-341 -322.793)" fill="#fff"/>
              </g>
              <g id="Group_12534" data-name="Group 12534" transform="translate(10.114 7.239)">
                <path id="Path_25556" data-name="Path 25556" d="M340.658,326.444h-.016a.158.158,0,0,1-.143-.158v-.016a1.166,1.166,0,0,1,.016-.117.16.16,0,0,1,.317.025.07.07,0,0,1,0,.025.817.817,0,0,0-.013.1A.161.161,0,0,1,340.658,326.444Z" transform="translate(-340.5 -326.02)" fill="#fff"/>
              </g>
              <g id="Group_12535" data-name="Group 12535" transform="translate(10.117 7.557)">
                <path id="Path_25557" data-name="Path 25557" d="M340.771,336.792a.156.156,0,0,1-.155-.133c-.006-.035-.013-.076-.016-.114h0v-.016a.159.159,0,0,1,.317-.019c0,.029.006.054.013.086a.154.154,0,0,1,0,.038.16.16,0,0,1-.155.158Z" transform="translate(-340.6 -336.37)" fill="#fff"/>
              </g>
              <g id="Group_12536" data-name="Group 12536" transform="translate(10.108 7.342)">
                <path id="Path_25558" data-name="Path 25558" d="M340.458,329.8a.157.157,0,0,1-.158-.158h0c0-.044,0-.086.006-.127a.158.158,0,1,1,.314.035.9.9,0,0,0-.006.092A.152.152,0,0,1,340.458,329.8Z" transform="translate(-340.3 -329.37)" fill="#fff"/>
              </g>
              <g id="Group_12537" data-name="Group 12537" transform="translate(10.108 7.447)">
                <path id="Path_25559" data-name="Path 25559" d="M340.465,333.228a.161.161,0,0,1-.158-.143c0-.041-.006-.082-.006-.127a.158.158,0,0,1,.317,0,.751.751,0,0,0,0,.082.087.087,0,0,1,0,.029.159.159,0,0,1-.158.158Z" transform="translate(-340.3 -332.8)" fill="#fff"/>
              </g>
              <g id="Group_12538" data-name="Group 12538" transform="translate(9.04 6.304)">
                <path id="Path_25560" data-name="Path 25560" d="M307.829,301.365a1.232,1.232,0,0,1,0-2.465,1.25,1.25,0,0,1,.615.165.153.153,0,0,1,.079.136.162.162,0,0,1-.079.139.868.868,0,0,0-.25.215s-.006.009-.013.013l0,0a.817.817,0,0,0-.082.13s0,0,0,.006a.529.529,0,0,0-.029.06l-.006.013c0,.006,0,.009-.006.016s-.013.035-.022.054c0,0,0,.009,0,.013v0c-.006.025-.013.048-.019.073,0,.006,0,.01,0,.016,0,.029-.009.06-.013.089a.878.878,0,0,0-.006.092.476.476,0,0,0,.006.1c0,.032.009.067.013.1s.016.06.025.089a.437.437,0,0,0,.019.051.012.012,0,0,1,0,.01.248.248,0,0,1,.013.029s0,.009.006.013c.006.019.016.035.022.051s0,0,0,.006a.91.91,0,0,0,.1.146l0,0a.77.77,0,0,0,.054.06l.006.006,0,0a.285.285,0,0,0,.054.048l.01.009a.344.344,0,0,0,.054.041c.022.016.048.029.07.044a.158.158,0,0,1,0,.272A1.3,1.3,0,0,1,307.829,301.365Zm0-2.148a.916.916,0,0,0,0,1.831,1.029,1.029,0,0,0,.219-.025l-.016-.016,0,0a.947.947,0,0,1-.079-.089,1.152,1.152,0,0,1-.13-.193.54.54,0,0,1-.041-.086c-.006-.016-.016-.032-.022-.051a.5.5,0,0,1-.029-.082c-.013-.041-.022-.082-.032-.124v-.006c-.006-.038-.013-.076-.016-.117s-.006-.082-.006-.127,0-.082.006-.127a.993.993,0,0,1,.016-.108c0-.006,0-.013,0-.019a.688.688,0,0,1,.025-.1.046.046,0,0,1,.006-.022.9.9,0,0,1,.035-.1l0-.009c0-.006,0-.01.006-.016l.006-.013c.013-.025.025-.057.044-.089a1.111,1.111,0,0,1,.108-.162.25.25,0,0,1,.025-.029.991.991,0,0,1,.1-.1A1.139,1.139,0,0,0,307.829,299.217Z" transform="translate(-306.6 -298.9)" fill="#fff"/>
              </g>
              <g id="Group_12539" data-name="Group 12539" transform="translate(0 4.802)">
                <path id="Path_25561" data-name="Path 25561" d="M26.08,256.889h-13.3a.867.867,0,0,1-.625-.269.922.922,0,0,1-.259-.643v-4.318a.155.155,0,0,1,.154-.158H26.81a.155.155,0,0,1,.154.158v4.318A.9.9,0,0,1,26.08,256.889Zm-13.872-5.072v4.16a.6.6,0,0,0,.169.418.553.553,0,0,0,.407.174h13.3a.585.585,0,0,0,.576-.592v-4.16Zm11,3.675a1.136,1.136,0,0,1-.521-.124,1.178,1.178,0,0,1-.521.124,1.233,1.233,0,0,1,0-2.465,1.155,1.155,0,0,1,.521.124,1.2,1.2,0,0,1,.521-.124,1.233,1.233,0,0,1,0,2.465Zm-.517-.459a.136.136,0,0,1,.077.022.865.865,0,0,0,.444.12.916.916,0,0,0,0-1.831.881.881,0,0,0-.444.12.149.149,0,0,1-.154,0,.907.907,0,1,0-.444,1.708.873.873,0,0,0,.444-.12A.155.155,0,0,1,22.692,255.033Z" transform="translate(-11.9 -251.5)" fill="#fff"/>
              </g>
              <g id="Group_12540" data-name="Group 12540">
                <path id="Path_25562" data-name="Path 25562" d="M26.81,93.662H12.054A.155.155,0,0,1,11.9,93.5V91.609a.9.9,0,0,1,.884-.909h13.3a.9.9,0,0,1,.884.909V93.5A.157.157,0,0,1,26.81,93.662Zm-14.6-.317H26.656V91.609a.585.585,0,0,0-.576-.592h-13.3a.585.585,0,0,0-.576.592Z" transform="translate(-11.9 -90.7)" fill="#fff"/>
              </g>
            </g>
            <g id="Group_12560" data-name="Group 12560">
              <g id="Group_12542" data-name="Group 12542">
                <path id="Path_25563" data-name="Path 25563" d="M26.08,100.866h-13.3a.886.886,0,0,1-.884-.884v-8.4a.884.884,0,0,1,.884-.884h13.3a.886.886,0,0,1,.884.884v8.4A.887.887,0,0,1,26.08,100.866ZM12.784,91a.577.577,0,0,0-.576.576v8.4a.577.577,0,0,0,.576.576h13.3a.577.577,0,0,0,.576-.576v-8.4a.577.577,0,0,0-.576-.576h-13.3Z" transform="translate(-11.9 -90.7)" fill="#fff"/>
              </g>
              <g id="Group_12543" data-name="Group 12543" transform="translate(0 2.569)">
                <path id="Path_25564" data-name="Path 25564" d="M26.81,174.517H12.054a.158.158,0,0,1,0-.317H26.81a.158.158,0,0,1,0,.317Z" transform="translate(-11.9 -174.2)" fill="#fff"/>
              </g>
              <g id="Group_12544" data-name="Group 12544" transform="translate(0 4.923)">
                <path id="Path_25565" data-name="Path 25565" d="M26.81,251.017H12.054a.158.158,0,0,1,0-.317H26.81a.158.158,0,0,1,0,.317Z" transform="translate(-11.9 -250.7)" fill="#fff"/>
              </g>
              <g id="Group_12545" data-name="Group 12545" transform="translate(5.82 6.357)">
                <path id="Path_25566" data-name="Path 25566" d="M203,297.617h-1.34a.158.158,0,0,1,0-.317H203a.158.158,0,1,1,0,.317Z" transform="translate(-201.5 -297.3)" fill="#fff"/>
              </g>
              <g id="Group_12546" data-name="Group 12546" transform="translate(2.148 8.077)">
                <path id="Path_25567" data-name="Path 25567" d="M80.555,353.517h-.7a.158.158,0,0,1,0-.317h.7a.157.157,0,0,1,.158.158A.159.159,0,0,1,80.555,353.517Z" transform="translate(-79.7 -353.2)" fill="#fff"/>
              </g>
              <g id="Group_12547" data-name="Group 12547" transform="translate(10.416 8.141)">
                <path id="Path_25568" data-name="Path 25568" d="M350.686,357.322a.168.168,0,0,1-.086-.025.481.481,0,0,1-.089-.07.862.862,0,0,1-.089-.079.159.159,0,0,1,.234-.215.284.284,0,0,0,.054.048l.009.01a.347.347,0,0,0,.054.041.159.159,0,0,1,.048.219A.17.17,0,0,1,350.686,357.322Z" transform="translate(-350.382 -356.881)" fill="#fff"/>
              </g>
              <g id="Group_12548" data-name="Group 12548" transform="translate(10.349 8.111)">
                <path id="Path_25569" data-name="Path 25569" d="M348.371,354.738a.149.149,0,0,1-.111-.048.94.94,0,0,1-.079-.089.158.158,0,1,1,.25-.193.755.755,0,0,0,.054.06.157.157,0,0,1,0,.225A.185.185,0,0,1,348.371,354.738Z" transform="translate(-348.147 -354.347)" fill="#fff"/>
              </g>
              <g id="Group_12549" data-name="Group 12549" transform="translate(10.202 7.874)">
                <path id="Path_25570" data-name="Path 25570" d="M343.554,347.054a.157.157,0,0,1-.136-.079.667.667,0,0,1-.044-.095.159.159,0,1,1,.3-.114c.006.019.016.035.022.051a.156.156,0,0,1-.057.215A.161.161,0,0,1,343.554,347.054Z" transform="translate(-343.363 -346.663)" fill="#fff"/>
              </g>
              <g id="Group_12550" data-name="Group 12550" transform="translate(10.16 7.764)">
                <path id="Path_25571" data-name="Path 25571" d="M342.166,343.472a.156.156,0,0,1-.143-.092.594.594,0,0,1-.032-.089.159.159,0,1,1,.3-.1.316.316,0,0,1,.016.051.156.156,0,0,1-.079.209A.171.171,0,0,1,342.166,343.472Z" transform="translate(-341.985 -343.085)" fill="#fff"/>
              </g>
              <g id="Group_12551" data-name="Group 12551" transform="translate(10.111 7.228)">
                <path id="Path_25572" data-name="Path 25572" d="M340.577,326.673a.156.156,0,0,1-.155-.133c-.006-.038-.013-.076-.016-.117s-.006-.082-.006-.127,0-.082.006-.127a1.183,1.183,0,0,1,.016-.117.159.159,0,1,1,.314.054.825.825,0,0,0-.013.1.893.893,0,0,0-.006.092.483.483,0,0,0,.006.1c0,.035.009.066.013.1a.158.158,0,0,1-.13.181C340.593,326.67,340.584,326.673,340.577,326.673Z" transform="translate(-340.4 -325.92)" fill="#fff"/>
              </g>
              <g id="Group_12552" data-name="Group 12552" transform="translate(10.129 7.139)">
                <path id="Path_25573" data-name="Path 25573" d="M341.139,323.208a.13.13,0,0,1-.035,0,.159.159,0,0,1-.12-.19q.014-.057.029-.1v0a.158.158,0,0,1,.3.089v0a.861.861,0,0,0-.022.086A.158.158,0,0,1,341.139,323.208Z" transform="translate(-340.98 -322.793)" fill="#fff"/>
              </g>
              <g id="Group_12553" data-name="Group 12553" transform="translate(10.164 7.056)">
                <path id="Path_25574" data-name="Path 25574" d="M342.4,320.307l-.3-.1a.807.807,0,0,1,.038-.1.157.157,0,1,1,.285.133A.606.606,0,0,0,342.4,320.307Z" transform="translate(-342.1 -320.013)" fill="#fff"/>
              </g>
              <g id="Group_12554" data-name="Group 12554" transform="translate(10.191 6.952)">
                <path id="Path_25575" data-name="Path 25575" d="M343.171,317.09a.128.128,0,0,1-.066-.016.156.156,0,0,1-.076-.209l.006-.013a.855.855,0,0,1,.047-.092.159.159,0,1,1,.272.165.542.542,0,0,0-.029.06l-.006.013A.173.173,0,0,1,343.171,317.09Z" transform="translate(-343.013 -316.684)" fill="#fff"/>
              </g>
              <g id="Group_12555" data-name="Group 12555" transform="translate(10.329 6.796)">
                <path id="Path_25576" data-name="Path 25576" d="M347.636,311.917a.189.189,0,0,1-.089-.025.158.158,0,0,1-.044-.219.241.241,0,0,1,.032-.038.16.16,0,0,1,.225,0,.156.156,0,0,1,0,.222l0,0h0A.161.161,0,0,1,347.636,311.917Z" transform="translate(-347.477 -311.587)" fill="#fff"/>
              </g>
              <g id="Group_12556" data-name="Group 12556" transform="translate(9.04 6.304)">
                <path id="Path_25577" data-name="Path 25577" d="M307.829,301.365a1.232,1.232,0,0,1,0-2.465,1.25,1.25,0,0,1,.615.165.158.158,0,0,1-.155.276.939.939,0,0,0-.456-.124.916.916,0,1,0,.456,1.711.158.158,0,1,1,.158.272A1.252,1.252,0,0,1,307.829,301.365Z" transform="translate(-306.6 -298.9)" fill="#fff"/>
              </g>
              <g id="Group_12557" data-name="Group 12557" transform="translate(10.063 6.307)">
                <path id="Path_25578" data-name="Path 25578" d="M341.626,301.462a1.233,1.233,0,0,1-.615-.165,0,0,0,0,1,0,0c-.025-.016-.054-.032-.076-.048a0,0,0,0,1,0,0,.78.78,0,0,1-.086-.067l-.082-.073.108-.114-.111.114,0,0a.96.96,0,0,1-.079-.089,1.155,1.155,0,0,1-.13-.193.546.546,0,0,1-.041-.086c-.006-.016-.016-.032-.022-.051s-.019-.051-.025-.073v0c-.013-.044-.025-.086-.035-.127v-.009l0-.013a1,1,0,0,1-.013-.1c0-.041-.006-.086-.006-.127s0-.086.006-.127a.984.984,0,0,1,.016-.108c0-.006,0-.013,0-.019a.686.686,0,0,1,.025-.1.045.045,0,0,1,.006-.022.581.581,0,0,1,.035-.089l0-.013s0-.01,0-.013a.948.948,0,0,1,.051-.1,1.522,1.522,0,0,1,.108-.168.254.254,0,0,1,.025-.029,1.2,1.2,0,0,1,.333-.285,1.23,1.23,0,1,1,.611,2.3Zm-.453-.437a.906.906,0,0,0,.453.12.916.916,0,0,0,0-1.831.926.926,0,0,0-.456.12.866.866,0,0,0-.25.215s-.006.009-.013.013l0,0a.812.812,0,0,0-.082.13.478.478,0,0,0-.035.07l0,.01s0,.006,0,.01c-.01.022-.016.044-.025.063,0,0,0,.006,0,.013v0c-.006.025-.013.048-.019.073,0,.006,0,.01,0,.016,0,.028-.01.06-.013.089a.837.837,0,0,0-.006.092c0,.032,0,.063.006.1s.006.054.013.086v.01c.006.029.016.06.025.089v0c.006.019.013.038.019.054s0,0,0,.006a.235.235,0,0,1,.013.029s0,.01.006.013c.006.019.016.035.022.051s0,0,0,.006a.906.906,0,0,0,.1.146l0,0c.016.019.032.038.054.06l.006.006c.016.016.038.035.06.054a.666.666,0,0,0,.06.047A.479.479,0,0,1,341.173,301.025Z" transform="translate(-340.4 -299)" fill="#fff"/>
              </g>
              <g id="Group_12558" data-name="Group 12558" transform="translate(2.148 6.357)">
                <path id="Path_25579" data-name="Path 25579" d="M82.707,297.617H79.858a.158.158,0,0,1,0-.317h2.848a.158.158,0,1,1,0,.317Z" transform="translate(-79.7 -297.3)" fill="#fff"/>
              </g>
              <g id="Group_12559" data-name="Group 12559" transform="translate(3.565 8.077)">
                <path id="Path_25580" data-name="Path 25580" d="M132.6,353.517h-3.644a.158.158,0,0,1,0-.317H132.6a.158.158,0,0,1,0,.317Z" transform="translate(-128.8 -353.2)" fill="#fff"/>
              </g>
            </g>
          </g>
        </g>
      </g>
    </g>
  </g>
</svg>
