<svg xmlns="http://www.w3.org/2000/svg" width="32.625" height="32.625" viewBox="0 0 32.625 32.625">
  <g id="Credit_icon2" opacity="0.506">
    <ellipse id="Ellipse_181" data-name="Ellipse 181" cx="16.312" cy="16.312" rx="16.312" ry="16.312" fill="#788496"/>
    <g id="noun_credit_2127380" transform="translate(6.817 9.888)">
      <g id="Group_12563" data-name="Group 12563" transform="translate(0 0)">
        <g id="Group_12562" data-name="Group 12562" transform="translate(0 0)">
          <g id="Group_12561" data-name="Group 12561">
            <g id="Group_12541" data-name="Group 12541" transform="translate(0)">
              <g id="Group_12523" data-name="Group 12523" transform="translate(0 3.238)">
                <path id="Path_25545" data-name="Path 25545" d="M30.7,177.463h-18.6a.192.192,0,0,1-.194-.194v-2.974a.192.192,0,0,1,.194-.194H30.7a.192.192,0,0,1,.194.194v2.974A.192.192,0,0,1,30.7,177.463Zm-18.409-.388H30.5v-2.586H12.288Z" transform="translate(-11.9 -174.1)" fill="#fff"/>
              </g>
              <g id="Group_12524" data-name="Group 12524" transform="translate(12.756 8.088)">
                <path id="Path_25546" data-name="Path 25546" d="M341.9,302.017a1.51,1.51,0,0,1-.753-.2,0,0,0,0,1,0,0c-.031-.019-.066-.039-.093-.058a0,0,0,0,1,0,0,.955.955,0,0,1-.1-.082l-.1-.089.132-.14-.136.14,0,0a1.177,1.177,0,0,1-.1-.109,1.408,1.408,0,0,1-.159-.237.658.658,0,0,1-.05-.1c-.008-.019-.019-.039-.027-.062s-.023-.062-.031-.089v0c-.016-.054-.031-.1-.043-.155V300.8l0-.016a1.217,1.217,0,0,1-.016-.124c0-.05-.008-.1-.008-.155s0-.1.008-.155a1.188,1.188,0,0,1,.019-.132c0-.008,0-.016,0-.023a.836.836,0,0,1,.031-.116.056.056,0,0,1,.008-.027.717.717,0,0,1,.043-.109l0-.016s0-.012,0-.016a1.144,1.144,0,0,1,.062-.12,1.851,1.851,0,0,1,.132-.206.325.325,0,0,1,.031-.035,1.475,1.475,0,0,1,.408-.349,1.508,1.508,0,1,1,.749,2.815Zm-.555-.536a1.111,1.111,0,0,0,.555.148,1.122,1.122,0,0,0,0-2.244,1.135,1.135,0,0,0-.559.148,1.063,1.063,0,0,0-.307.264s-.008.012-.016.016l0,0a.992.992,0,0,0-.1.159.582.582,0,0,0-.043.085l0,.012s0,.008,0,.012c-.012.027-.019.054-.031.078,0,0,0,.008,0,.016v0c-.008.031-.015.058-.023.089,0,.008,0,.012,0,.019,0,.035-.012.074-.016.109a1.027,1.027,0,0,0-.008.113c0,.039,0,.078.008.117s.008.066.016.1v.012c.008.035.019.074.031.109v0c.008.023.016.047.023.066,0,0,0,0,0,.008a.3.3,0,0,1,.016.035s0,.012.008.016c.008.023.019.043.027.062,0,0,0,0,0,.008a1.109,1.109,0,0,0,.12.179l0,0c.019.023.039.047.066.074l.008.008c.019.019.047.043.074.066a.791.791,0,0,0,.074.058A.588.588,0,0,1,341.347,301.481Z" transform="translate(-340.4 -299)" fill="#fff"/>
              </g>
              <g id="Group_12525" data-name="Group 12525" transform="translate(13.232 10.418)">
                <path id="Path_25547" data-name="Path 25547" d="M352.951,359.467a.206.206,0,0,1-.1-.031.927.927,0,0,1-.117-.089.194.194,0,0,1,.256-.291l.066.054a.2.2,0,0,1,.093.167.2.2,0,0,1-.19.194Z" transform="translate(-352.666 -359.009)" fill="#fff"/>
              </g>
              <g id="Group_12526" data-name="Group 12526" transform="translate(13.14 10.341)">
                <path id="Path_25548" data-name="Path 25548" d="M350.593,357.489a.2.2,0,0,1-.12-.039c-.027-.023-.07-.058-.113-.1a.2.2,0,0,1,.008-.272.2.2,0,0,1,.272,0c.019.019.043.039.066.058a.2.2,0,0,1,.082.155.2.2,0,0,1-.194.194Z" transform="translate(-350.31 -357.024)" fill="#fff"/>
              </g>
              <g id="Group_12527" data-name="Group 12527" transform="translate(13.052 10.237)">
                <path id="Path_25549" data-name="Path 25549" d="M348.325,354.827a.175.175,0,0,1-.1-.027h0a.291.291,0,0,1-.043-.031h0a1.152,1.152,0,0,1-.1-.109.194.194,0,0,1,.307-.237.538.538,0,0,0,.066.074h0l0,0h0a.193.193,0,0,1-.012.264h0a.2.2,0,0,1-.1.054C348.344,354.827,348.333,354.827,348.325,354.827Z" transform="translate(-348.047 -354.347)" fill="#fff"/>
              </g>
              <g id="Group_12528" data-name="Group 12528" transform="translate(13.031 8.573)">
                <path id="Path_25550" data-name="Path 25550" d="M347.694,311.9a.232.232,0,0,1-.109-.031.193.193,0,0,1-.085-.163.232.232,0,0,1,.031-.109.3.3,0,0,1,.039-.047.194.194,0,0,1,.334.136.2.2,0,0,1-.054.136l0,0A.2.2,0,0,1,347.694,311.9Z" transform="translate(-347.5 -311.487)" fill="#fff"/>
              </g>
              <g id="Group_12529" data-name="Group 12529" transform="translate(12.872 9.939)">
                <path id="Path_25551" data-name="Path 25551" d="M343.633,347.142a.192.192,0,0,1-.167-.1.806.806,0,0,1-.054-.117.219.219,0,0,1-.012-.07.195.195,0,0,1,.377-.07c.008.023.019.043.027.062a.184.184,0,0,1,.027.1.192.192,0,0,1-.1.167A.2.2,0,0,1,343.633,347.142Z" transform="translate(-343.4 -346.663)" fill="#fff"/>
              </g>
              <g id="Group_12530" data-name="Group 12530" transform="translate(12.859 8.779)">
                <path id="Path_25552" data-name="Path 25552" d="M343.265,317.271a.174.174,0,0,1-.078-.016.194.194,0,0,1-.1-.256.18.18,0,0,1,.019-.039.663.663,0,0,1,.047-.089.2.2,0,0,1,.264-.07.191.191,0,0,1,.074.26c-.012.023-.023.043-.035.066l-.016.031A.2.2,0,0,1,343.265,317.271Z" transform="translate(-343.074 -316.777)" fill="#fff"/>
              </g>
              <g id="Group_12531" data-name="Group 12531" transform="translate(12.809 8.903)">
                <path id="Path_25553" data-name="Path 25553" d="M341.97,320.468a.175.175,0,0,1-.062-.012.2.2,0,0,1-.124-.245h0a.992.992,0,0,1,.047-.124.191.191,0,0,1,.252-.1.193.193,0,0,1,.1.249c-.012.031-.027.066-.035.093A.186.186,0,0,1,341.97,320.468Z" transform="translate(-341.775 -319.974)" fill="#fff"/>
              </g>
              <g id="Group_12532" data-name="Group 12532" transform="translate(12.817 9.804)">
                <path id="Path_25554" data-name="Path 25554" d="M342.2,343.646a.191.191,0,0,1-.175-.113.741.741,0,0,1-.039-.109.192.192,0,0,1,.124-.241.2.2,0,0,1,.245.124v0c.008.019.012.035.019.05a.23.23,0,0,1,.019.089.193.193,0,0,1-.182.194S342.2,343.646,342.2,343.646Z" transform="translate(-341.975 -343.175)" fill="#fff"/>
              </g>
              <g id="Group_12533" data-name="Group 12533" transform="translate(12.779 9.012)">
                <path id="Path_25555" data-name="Path 25555" d="M341.194,323.3a.158.158,0,0,1-.043,0,.2.2,0,0,1-.151-.19.161.161,0,0,1,0-.043q.017-.07.035-.128v0a.2.2,0,0,1,.241-.132.191.191,0,0,1,.14.186.26.26,0,0,1-.008.054v0a1.069,1.069,0,0,0-.027.1A.194.194,0,0,1,341.194,323.3Z" transform="translate(-341 -322.793)" fill="#fff"/>
              </g>
              <g id="Group_12534" data-name="Group 12534" transform="translate(12.759 9.137)">
                <path id="Path_25556" data-name="Path 25556" d="M340.694,326.539h-.019a.194.194,0,0,1-.175-.194v-.019a1.434,1.434,0,0,1,.019-.144.2.2,0,0,1,.388.031.086.086,0,0,1,0,.031,1.009,1.009,0,0,0-.016.12A.2.2,0,0,1,340.694,326.539Z" transform="translate(-340.5 -326.02)" fill="#fff"/>
              </g>
              <g id="Group_12535" data-name="Group 12535" transform="translate(12.763 9.539)">
                <path id="Path_25557" data-name="Path 25557" d="M340.81,336.888a.192.192,0,0,1-.19-.163c-.008-.043-.016-.093-.019-.14h0v-.019a.195.195,0,0,1,.388-.023c0,.035.008.066.016.1a.186.186,0,0,1,0,.047.2.2,0,0,1-.19.194Z" transform="translate(-340.6 -336.37)" fill="#fff"/>
              </g>
              <g id="Group_12536" data-name="Group 12536" transform="translate(12.752 9.267)">
                <path id="Path_25558" data-name="Path 25558" d="M340.494,329.892a.192.192,0,0,1-.194-.194h0c0-.054,0-.1.008-.155a.193.193,0,0,1,.384.043,1.091,1.091,0,0,0-.008.113A.187.187,0,0,1,340.494,329.892Z" transform="translate(-340.3 -329.37)" fill="#fff"/>
              </g>
              <g id="Group_12537" data-name="Group 12537" transform="translate(12.752 9.401)">
                <path id="Path_25559" data-name="Path 25559" d="M340.5,333.324a.2.2,0,0,1-.194-.175c0-.051-.008-.1-.008-.155a.194.194,0,1,1,.388,0,.906.906,0,0,0,0,.1.108.108,0,0,1,0,.035.2.2,0,0,1-.194.194Z" transform="translate(-340.3 -332.8)" fill="#fff"/>
              </g>
              <g id="Group_12538" data-name="Group 12538" transform="translate(11.443 8.084)">
                <path id="Path_25560" data-name="Path 25560" d="M308.107,301.921a1.51,1.51,0,0,1,0-3.021,1.532,1.532,0,0,1,.753.2.188.188,0,0,1,.1.167.2.2,0,0,1-.1.171,1.063,1.063,0,0,0-.307.264s-.008.012-.016.016l0,0a1,1,0,0,0-.1.159s0,0,0,.008a.666.666,0,0,0-.035.074l-.008.016c0,.008,0,.012-.008.019s-.016.043-.027.066c0,0,0,.012,0,.016v0c-.008.031-.016.058-.023.089,0,.008,0,.012,0,.019,0,.035-.012.074-.016.109a1.107,1.107,0,0,0-.008.113.589.589,0,0,0,.008.117c0,.039.012.082.016.117s.019.074.031.109a.535.535,0,0,0,.023.062.014.014,0,0,1,0,.012.317.317,0,0,1,.016.035s0,.012.008.016c.008.023.019.043.027.062,0,0,0,0,0,.008a1.11,1.11,0,0,0,.12.179l0,0a.926.926,0,0,0,.066.074l.008.008,0,0a.349.349,0,0,0,.066.058l.012.012a.423.423,0,0,0,.066.05c.027.019.058.035.085.054a.194.194,0,0,1,0,.334A1.587,1.587,0,0,1,308.107,301.921Zm0-2.633a1.122,1.122,0,0,0,0,2.244,1.257,1.257,0,0,0,.268-.031l-.019-.019,0,0a1.165,1.165,0,0,1-.1-.109,1.406,1.406,0,0,1-.159-.237.654.654,0,0,1-.05-.1c-.008-.019-.019-.039-.027-.062a.63.63,0,0,1-.035-.1c-.016-.05-.027-.1-.039-.151v-.008c-.008-.047-.016-.093-.019-.144s-.008-.1-.008-.155,0-.1.008-.155a1.2,1.2,0,0,1,.019-.132c0-.008,0-.016,0-.023a.842.842,0,0,1,.031-.117.056.056,0,0,1,.008-.027,1.111,1.111,0,0,1,.043-.117l0-.012c0-.008,0-.012.008-.019l.008-.016c.016-.031.031-.07.054-.109a1.351,1.351,0,0,1,.132-.2.31.31,0,0,1,.031-.035,1.238,1.238,0,0,1,.116-.128A1.4,1.4,0,0,0,308.107,299.288Z" transform="translate(-306.6 -298.9)" fill="#fff"/>
              </g>
              <g id="Group_12539" data-name="Group 12539" transform="translate(0 6.244)">
                <path id="Path_25561" data-name="Path 25561" d="M29.777,258.1H13.014a1.12,1.12,0,0,1-1.114-1.118v-5.293a.192.192,0,0,1,.194-.194H30.7a.192.192,0,0,1,.194.194v5.293A1.118,1.118,0,0,1,29.777,258.1Zm-17.489-6.217v5.1a.723.723,0,0,0,.214.513.707.707,0,0,0,.513.214H29.777a.728.728,0,0,0,.726-.726v-5.1Zm13.87,4.5a1.467,1.467,0,0,1-.656-.151,1.509,1.509,0,1,1-.656-2.87,1.491,1.491,0,0,1,.656.151,1.546,1.546,0,0,1,.656-.151,1.51,1.51,0,0,1,0,3.021Zm-.652-.563a.175.175,0,0,1,.1.027,1.122,1.122,0,1,0,.559-2.1,1.136,1.136,0,0,0-.559.148.193.193,0,0,1-.194,0,1.162,1.162,0,0,0-.559-.151,1.122,1.122,0,1,0,.559,2.1A.2.2,0,0,1,25.506,255.829Z" transform="translate(-11.9 -251.5)" fill="#fff"/>
              </g>
              <g id="Group_12540" data-name="Group 12540">
                <path id="Path_25562" data-name="Path 25562" d="M30.7,94.331h-18.6a.192.192,0,0,1-.194-.194V91.814A1.114,1.114,0,0,1,13.014,90.7H29.777a1.117,1.117,0,0,1,1.114,1.114v2.322A.2.2,0,0,1,30.7,94.331Zm-18.409-.388H30.5V91.814a.727.727,0,0,0-.726-.726H13.014a.727.727,0,0,0-.726.726Z" transform="translate(-11.9 -90.7)" fill="#fff"/>
              </g>
            </g>
            <g id="Group_12560" data-name="Group 12560">
              <g id="Group_12542" data-name="Group 12542">
                <path id="Path_25563" data-name="Path 25563" d="M29.777,103.518H13.014A1.117,1.117,0,0,1,11.9,102.4V91.814A1.114,1.114,0,0,1,13.014,90.7H29.777a1.117,1.117,0,0,1,1.114,1.114V102.4A1.118,1.118,0,0,1,29.777,103.518ZM13.014,91.084a.727.727,0,0,0-.726.726V102.4a.727.727,0,0,0,.726.726H29.777a.728.728,0,0,0,.726-.726V91.814a.727.727,0,0,0-.726-.726H13.014Z" transform="translate(-11.9 -90.7)" fill="#fff"/>
              </g>
              <g id="Group_12543" data-name="Group 12543" transform="translate(0 3.242)">
                <path id="Path_25564" data-name="Path 25564" d="M30.7,174.588h-18.6a.194.194,0,0,1,0-.388H30.7a.194.194,0,0,1,0,.388Z" transform="translate(-11.9 -174.2)" fill="#fff"/>
              </g>
              <g id="Group_12544" data-name="Group 12544" transform="translate(0 6.213)">
                <path id="Path_25565" data-name="Path 25565" d="M30.7,251.088h-18.6a.194.194,0,1,1,0-.388H30.7a.194.194,0,0,1,0,.388Z" transform="translate(-11.9 -250.7)" fill="#fff"/>
              </g>
              <g id="Group_12545" data-name="Group 12545" transform="translate(7.362 8.022)">
                <path id="Path_25566" data-name="Path 25566" d="M203.337,297.688h-1.643a.194.194,0,0,1,0-.388h1.643a.194.194,0,1,1,0,.388Z" transform="translate(-201.5 -297.3)" fill="#fff"/>
              </g>
              <g id="Group_12546" data-name="Group 12546" transform="translate(2.633 10.193)">
                <path id="Path_25567" data-name="Path 25567" d="M80.748,353.588h-.854a.194.194,0,0,1,0-.388h.854a.192.192,0,0,1,.194.194A.2.2,0,0,1,80.748,353.588Z" transform="translate(-79.7 -353.2)" fill="#fff"/>
              </g>
              <g id="Group_12547" data-name="Group 12547" transform="translate(13.143 10.336)">
                <path id="Path_25568" data-name="Path 25568" d="M350.755,357.422a.206.206,0,0,1-.1-.031.59.59,0,0,1-.109-.085,1.048,1.048,0,0,1-.109-.1.2.2,0,0,1,.287-.264.346.346,0,0,0,.066.058l.012.012a.428.428,0,0,0,.066.05.194.194,0,0,1,.058.268A.208.208,0,0,1,350.755,357.422Z" transform="translate(-350.382 -356.882)" fill="#fff"/>
              </g>
              <g id="Group_12548" data-name="Group 12548" transform="translate(13.056 10.237)">
                <path id="Path_25569" data-name="Path 25569" d="M348.421,354.827a.182.182,0,0,1-.136-.058,1.156,1.156,0,0,1-.1-.109.194.194,0,0,1,.307-.237.934.934,0,0,0,.066.074.192.192,0,0,1,0,.276A.226.226,0,0,1,348.421,354.827Z" transform="translate(-348.147 -354.347)" fill="#fff"/>
              </g>
              <g id="Group_12549" data-name="Group 12549" transform="translate(12.871 9.939)">
                <path id="Path_25570" data-name="Path 25570" d="M343.6,347.142a.192.192,0,0,1-.167-.1.809.809,0,0,1-.054-.117.2.2,0,0,1,.365-.14c.008.023.019.043.027.062a.192.192,0,0,1-.07.264A.2.2,0,0,1,343.6,347.142Z" transform="translate(-343.363 -346.663)" fill="#fff"/>
              </g>
              <g id="Group_12550" data-name="Group 12550" transform="translate(12.817 9.8)">
                <path id="Path_25571" data-name="Path 25571" d="M342.207,343.559a.191.191,0,0,1-.175-.113.741.741,0,0,1-.039-.109.2.2,0,1,1,.373-.116.379.379,0,0,1,.019.062.192.192,0,0,1-.1.256A.209.209,0,0,1,342.207,343.559Z" transform="translate(-341.985 -343.085)" fill="#fff"/>
              </g>
              <g id="Group_12551" data-name="Group 12551" transform="translate(12.756 9.134)">
                <path id="Path_25572" data-name="Path 25572" d="M340.617,326.843a.192.192,0,0,1-.19-.163c-.008-.047-.016-.093-.019-.144s-.008-.1-.008-.155,0-.1.008-.155a1.423,1.423,0,0,1,.019-.144.2.2,0,0,1,.384.066,1.008,1.008,0,0,0-.016.12,1.083,1.083,0,0,0-.008.113.586.586,0,0,0,.008.116c0,.043.012.082.016.12a.193.193,0,0,1-.159.221C340.637,326.839,340.625,326.843,340.617,326.843Z" transform="translate(-340.4 -325.92)" fill="#fff"/>
              </g>
              <g id="Group_12552" data-name="Group 12552" transform="translate(12.778 9.012)">
                <path id="Path_25573" data-name="Path 25573" d="M341.174,323.3a.158.158,0,0,1-.043,0,.2.2,0,0,1-.148-.233q.017-.07.035-.128v0a.194.194,0,0,1,.373.109v0a1.036,1.036,0,0,0-.027.1A.194.194,0,0,1,341.174,323.3Z" transform="translate(-340.98 -322.793)" fill="#fff"/>
              </g>
              <g id="Group_12553" data-name="Group 12553" transform="translate(12.822 8.904)">
                <path id="Path_25574" data-name="Path 25574" d="M342.469,320.374l-.369-.124a.994.994,0,0,1,.047-.124.193.193,0,1,1,.349.163A.749.749,0,0,0,342.469,320.374Z" transform="translate(-342.1 -320.013)" fill="#fff"/>
              </g>
              <g id="Group_12554" data-name="Group 12554" transform="translate(12.857 8.775)">
                <path id="Path_25575" data-name="Path 25575" d="M343.207,317.182a.158.158,0,0,1-.082-.019.191.191,0,0,1-.093-.256l.008-.016a1.049,1.049,0,0,1,.058-.113.2.2,0,0,1,.334.2.682.682,0,0,0-.035.074l-.008.016A.211.211,0,0,1,343.207,317.182Z" transform="translate(-343.013 -316.684)" fill="#fff"/>
              </g>
              <g id="Group_12555" data-name="Group 12555" transform="translate(13.03 8.577)">
                <path id="Path_25576" data-name="Path 25576" d="M347.672,311.992a.232.232,0,0,1-.109-.031.194.194,0,0,1-.054-.268.3.3,0,0,1,.039-.047.2.2,0,0,1,.276,0,.191.191,0,0,1,0,.272l0,0h0A.2.2,0,0,1,347.672,311.992Z" transform="translate(-347.477 -311.587)" fill="#fff"/>
              </g>
              <g id="Group_12556" data-name="Group 12556" transform="translate(11.443 8.084)">
                <path id="Path_25577" data-name="Path 25577" d="M308.107,301.921a1.51,1.51,0,0,1,0-3.021,1.532,1.532,0,0,1,.753.2.194.194,0,0,1-.19.338,1.151,1.151,0,0,0-.559-.151,1.122,1.122,0,1,0,.559,2.1.193.193,0,0,1,.194.334A1.535,1.535,0,0,1,308.107,301.921Z" transform="translate(-306.6 -298.9)" fill="#fff"/>
              </g>
              <g id="Group_12557" data-name="Group 12557" transform="translate(12.756 8.088)">
                <path id="Path_25578" data-name="Path 25578" d="M341.9,302.017a1.51,1.51,0,0,1-.753-.2,0,0,0,0,1,0,0c-.031-.019-.066-.039-.093-.058a0,0,0,0,1,0,0,.955.955,0,0,1-.1-.082l-.1-.089.132-.14-.136.14,0,0a1.177,1.177,0,0,1-.1-.109,1.408,1.408,0,0,1-.159-.237.658.658,0,0,1-.05-.1c-.008-.019-.019-.039-.027-.062s-.023-.062-.031-.089v0c-.016-.054-.031-.1-.043-.155V300.8l0-.016a1.217,1.217,0,0,1-.016-.124c0-.05-.008-.1-.008-.155s0-.1.008-.155a1.188,1.188,0,0,1,.019-.132c0-.008,0-.016,0-.023a.836.836,0,0,1,.031-.116.056.056,0,0,1,.008-.027.717.717,0,0,1,.043-.109l0-.016s0-.012,0-.016a1.144,1.144,0,0,1,.062-.12,1.851,1.851,0,0,1,.132-.206.325.325,0,0,1,.031-.035,1.475,1.475,0,0,1,.408-.349,1.508,1.508,0,1,1,.749,2.815Zm-.555-.536a1.111,1.111,0,0,0,.555.148,1.122,1.122,0,0,0,0-2.244,1.135,1.135,0,0,0-.559.148,1.063,1.063,0,0,0-.307.264s-.008.012-.016.016l0,0a.992.992,0,0,0-.1.159.582.582,0,0,0-.043.085l0,.012s0,.008,0,.012c-.012.027-.019.054-.031.078,0,0,0,.008,0,.016v0c-.008.031-.015.058-.023.089,0,.008,0,.012,0,.019,0,.035-.012.074-.016.109a1.027,1.027,0,0,0-.008.113c0,.039,0,.078.008.117s.008.066.016.1v.012c.008.035.019.074.031.109v0c.008.023.016.047.023.066,0,0,0,0,0,.008a.3.3,0,0,1,.016.035s0,.012.008.016c.008.023.019.043.027.062,0,0,0,0,0,.008a1.109,1.109,0,0,0,.12.179l0,0c.019.023.039.047.066.074l.008.008c.019.019.047.043.074.066a.791.791,0,0,0,.074.058A.588.588,0,0,1,341.347,301.481Z" transform="translate(-340.4 -299)" fill="#fff"/>
              </g>
              <g id="Group_12558" data-name="Group 12558" transform="translate(2.633 8.022)">
                <path id="Path_25579" data-name="Path 25579" d="M83.385,297.688H79.894a.194.194,0,0,1,0-.388h3.491a.194.194,0,1,1,0,.388Z" transform="translate(-79.7 -297.3)" fill="#fff"/>
              </g>
              <g id="Group_12559" data-name="Group 12559" transform="translate(4.539 10.193)">
                <path id="Path_25580" data-name="Path 25580" d="M133.46,353.588h-4.465a.194.194,0,1,1,0-.388h4.465a.194.194,0,1,1,0,.388Z" transform="translate(-128.8 -353.2)" fill="#fff"/>
              </g>
            </g>
          </g>
        </g>
      </g>
    </g>
  </g>
</svg>
