<svg xmlns="http://www.w3.org/2000/svg" width="35" height="35" viewBox="0 0 35 35">
    <g id="Group_13448" data-name="Group 13448" transform="translate(-852 -456.001)">
        <g id="Group_12665" data-name="Group 12665" transform="translate(852 456.001)">
            <path id="Path_25631" data-name="Path 25631" d="M29.524,4.227,24.75,9,12.788,7.5a5.248,5.248,0,0,0-3.708.94l-2.8,2.005L17.75,16l-7,7.875h-5.4a1.752,1.752,0,0,0-1.239.513L2,26.5l7.875,2.625L12.5,37l2.112-2.112a1.752,1.752,0,0,0,.513-1.239v-5.4l7.875-7,5.551,11.473,2.005-2.8a5.248,5.248,0,0,0,.94-3.708L30,14.251l4.774-4.774A7.606,7.606,0,0,0,37,4.1,2.1,2.1,0,0,0,34.9,2a7.606,7.606,0,0,0-5.376,2.226" transform="translate(-2 -2)" fill="#fff" fill-rule="evenodd"/>
        </g>
    </g>
</svg>
