<svg xmlns="http://www.w3.org/2000/svg" width="24.545" height="26.298" viewBox="0 0 24.545 26.298">
  <g id="noun_Petrol_3501728" transform="translate(-8 -5)">
    <path id="Path_25770" data-name="Path 25770" d="M11.506,16.688h11.1a.586.586,0,0,0,.584-.584v-7.6a.586.586,0,0,0-.584-.584h-11.1a.586.586,0,0,0-.584.584v7.6A.586.586,0,0,0,11.506,16.688Zm.584-1.169V12.013h9.935v3.506Zm9.935-6.428v1.753H12.091V9.091Zm-4.5,12.565a.644.644,0,0,0-.468-.263.527.527,0,0,0-.468.263l-1.753,2.513a2.706,2.706,0,0,0,.555,3.682,2.666,2.666,0,0,0,3.331,0,2.7,2.7,0,0,0,.555-3.682Zm.468,5.26a1.536,1.536,0,0,1-1.9,0,1.554,1.554,0,0,1-.321-2.1L17.029,23l1.256,1.812A1.521,1.521,0,0,1,17.993,26.915Zm12.8-17.824V7.834a.577.577,0,0,1,.175-.409l1.4-1.4a.579.579,0,0,0-.818-.818l-1.4,1.4a1.75,1.75,0,0,0-.526,1.227V9.091a1.758,1.758,0,0,0-1.753,1.753V14.35A1.758,1.758,0,0,0,29.623,16.1v8.766a2.344,2.344,0,0,1-2.338,2.338H26.116V7.338A2.344,2.344,0,0,0,23.779,5H10.338A2.344,2.344,0,0,0,8,7.338V28.96A2.344,2.344,0,0,0,10.338,31.3H23.779a2.344,2.344,0,0,0,2.338-2.338v-.584h1.169a3.517,3.517,0,0,0,3.506-3.506V16.1a1.758,1.758,0,0,0,1.753-1.753V10.844A1.758,1.758,0,0,0,30.791,9.091ZM10.338,6.169H23.779a1.172,1.172,0,0,1,1.169,1.169v11.1H9.169V7.338A1.172,1.172,0,0,1,10.338,6.169ZM24.948,28.96a1.172,1.172,0,0,1-1.169,1.169H10.338A1.172,1.172,0,0,1,9.169,28.96V19.61H24.948Zm6.428-14.61a.586.586,0,0,1-.584.584H29.623a.586.586,0,0,1-.584-.584V10.844a.586.586,0,0,1,.584-.584h1.169a.586.586,0,0,1,.584.584Z" fill="#4e4e4e"/>
  </g>
</svg>
