<svg xmlns="http://www.w3.org/2000/svg" width="28.47" height="26.498" viewBox="0 0 28.47 26.498">
  <g id="noun_manual_transmission_363264" data-name="noun_manual transmission_363264" transform="translate(-6.9 -9.9)">
    <g id="Group_13031" data-name="Group 13031" transform="translate(7 10)">
      <path id="Path_25780" data-name="Path 25780" d="M10.945,10a3.941,3.941,0,0,0-.329,7.869v10.56a3.945,3.945,0,1,0,.657,0V23.478h9.533v4.951a3.945,3.945,0,1,0,.657,0V23.478h9.862a.342.342,0,0,0,.329-.329v-5.28a3.945,3.945,0,1,0-.657,0V22.82H21.464V17.869a3.945,3.945,0,1,0-.657,0V22.82H11.273V17.869A3.941,3.941,0,0,0,10.945,10Zm0,.657a3.287,3.287,0,1,1-3.287,3.287A3.282,3.282,0,0,1,10.945,10.657Zm10.19,0a3.287,3.287,0,1,1-3.287,3.287A3.282,3.282,0,0,1,21.135,10.657Zm10.19,0a3.287,3.287,0,1,1-3.287,3.287A3.282,3.282,0,0,1,31.326,10.657Zm0,17.751a3.945,3.945,0,1,0,3.945,3.945A3.95,3.95,0,0,0,31.326,28.408Zm-20.381.657a3.287,3.287,0,1,1-3.287,3.287A3.282,3.282,0,0,1,10.945,29.066Zm10.19,0a3.287,3.287,0,1,1-3.287,3.287A3.282,3.282,0,0,1,21.135,29.066Zm10.19,0a3.287,3.287,0,1,1-3.287,3.287A3.282,3.282,0,0,1,31.326,29.066Z" transform="translate(-7 -10)" fill="#4e4e4e" stroke="#4e4e4e" stroke-width="0.2"/>
    </g>
  </g>
</svg>
