<svg id="Group_13289" data-name="Group 13289"
    xmlns="http://www.w3.org/2000/svg" width="34.999" height="40.122" viewBox="0 0 34.999 40.122">
    <path id="Path_26771" data-name="Path 26771" d="M11.553,56.227H44.988a.8.8,0,0,0,.8-.811V35.9a1.493,1.493,0,0,0-1.471-1.488H39.1A.4.4,0,0,1,38.7,34V25.888A1.493,1.493,0,0,0,37.231,24.4H19.488a1.493,1.493,0,0,0-1.471,1.488v5.68a.4.4,0,0,1-.4.406h-5.35A1.493,1.493,0,0,0,10.8,33.461v22A.729.729,0,0,0,11.553,56.227Zm26.3-17.762a.1.1,0,0,1,.089-.09H42.09a.1.1,0,0,1,.089.09v4.192a.1.1,0,0,1-.089.09H37.944a.1.1,0,0,1-.089-.09Zm0,7.619a.1.1,0,0,1,.089-.09H42.09a.1.1,0,0,1,.089.09v4.192a.1.1,0,0,1-.089.09H37.944a.1.1,0,0,1-.089-.09Zm-8.2-15.643a.1.1,0,0,1,.089-.09h4.146a.1.1,0,0,1,.089.09v4.192a.1.1,0,0,1-.089.09H29.742a.1.1,0,0,1-.089-.09Zm0,8.024a.1.1,0,0,1,.089-.09h4.146a.1.1,0,0,1,.089.09v4.192a.1.1,0,0,1-.089.09H29.742a.1.1,0,0,1-.089-.09Zm0,7.619a.1.1,0,0,1,.089-.09h4.146a.1.1,0,0,1,.089.09v4.192a.1.1,0,0,1-.089.09H29.742a.1.1,0,0,1-.089-.09ZM22.074,30.441a.1.1,0,0,1,.089-.09h4.146a.1.1,0,0,1,.089.09v4.192a.1.1,0,0,1-.089.09H22.163a.1.1,0,0,1-.089-.09Zm0,8.024a.1.1,0,0,1,.089-.09h4.146a.1.1,0,0,1,.089.09v4.192a.1.1,0,0,1-.089.09H22.163a.1.1,0,0,1-.089-.09Zm0,7.619a.1.1,0,0,1,.089-.09h4.146a.1.1,0,0,1,.089.09v4.192a.1.1,0,0,1-.089.09H22.163a.1.1,0,0,1-.089-.09Zm-8.158-7.619a.1.1,0,0,1,.089-.09h4.146a.1.1,0,0,1,.089.09v4.192a.1.1,0,0,1-.089.09H14.005a.1.1,0,0,1-.089-.09Zm0,7.619a.1.1,0,0,1,.089-.09h4.146a.1.1,0,0,1,.089.09v4.192a.1.1,0,0,1-.089.09H14.005a.1.1,0,0,1-.089-.09Z" transform="translate(-10.792 -16.105)" fill="#fff"/>
    <path id="Path_26772" data-name="Path 26772" d="M48.893,7.437a.255.255,0,0,0-.128-.428L47.1,6.753c-.086,0-.128-.043-.171-.128l-.727-1.5a.242.242,0,0,0-.428,0l-.727,1.5c-.043.086-.086.128-.171.128l-1.668.257a.24.24,0,0,0-.128.428l1.2,1.154a.327.327,0,0,1,.086.214l-.3,1.668a.235.235,0,0,0,.342.257l1.5-.77a.191.191,0,0,1,.214,0l1.5.77a.235.235,0,0,0,.342-.257l-.3-1.668c0-.086,0-.171.086-.214Z" transform="translate(-28.507 -5)" fill="#fff"/>
    <path id="Path_26773" data-name="Path 26773" d="M34.048,11.639c.086-.086.043-.3-.086-.3l-1.2-.171c-.043,0-.128-.043-.128-.086l-.556-1.112c-.086-.128-.257-.128-.3,0l-.556,1.112c-.043.043-.086.086-.128.086l-1.2.171a.17.17,0,0,0-.086.3l.855.855c.043.043.043.086.043.171l-.214,1.2a.167.167,0,0,0,.257.171l1.069-.556a.13.13,0,0,1,.171,0l1.069.556a.167.167,0,0,0,.257-.171l-.214-1.2a.257.257,0,0,1,.043-.171Z" transform="translate(-21.248 -7.791)" fill="#fff"/>
    <path id="Path_26774" data-name="Path 26774" d="M24.131,15.726c.086-.086.043-.171-.043-.214l-.77-.128a.149.149,0,0,1-.086-.043l-.342-.727a.121.121,0,0,0-.214,0l-.342.727c0,.043-.043.043-.086.043l-.77.128c-.086,0-.128.128-.043.214l.556.556a.132.132,0,0,1,.043.086l-.128.77c0,.086.086.171.171.128l.684-.385h.086l.684.385c.086.043.171-.043.171-.128l-.128-.77c0-.043,0-.086.043-.086Z" transform="translate(-16.859 -10.467)" fill="#fff"/>
    <path id="Path_26775" data-name="Path 26775" d="M74.531,15.726c.086-.086.043-.171-.043-.214l-.77-.128a.149.149,0,0,1-.086-.043l-.342-.727a.121.121,0,0,0-.214,0l-.342.727c0,.043-.043.043-.086.043l-.77.128c-.086,0-.128.128-.043.214l.556.556a.132.132,0,0,1,.043.086l-.128.77c0,.086.086.171.171.128l.684-.385h.086l.684.385c.086.043.171-.043.171-.128l-.128-.77c0-.043,0-.086.043-.086Z" transform="translate(-44.279 -10.467)" fill="#fff"/>
    <path id="Path_26776" data-name="Path 26776" d="M64.248,11.639c.086-.086.043-.3-.086-.3l-1.2-.171c-.043,0-.128-.043-.128-.086l-.556-1.112c-.086-.128-.257-.128-.3,0l-.556,1.112c-.043.043-.086.086-.128.086l-1.2.171a.17.17,0,0,0-.086.3l.855.855c.043.043.043.086.043.171l-.214,1.2a.167.167,0,0,0,.257.171l1.069-.556a.13.13,0,0,1,.171,0l1.069.556a.167.167,0,0,0,.257-.171l-.214-1.2a.257.257,0,0,1,.043-.171Z" transform="translate(-37.903 -7.791)" fill="#fff"/>
</svg>
