<svg id="noun_Camping_3165755" xmlns="http://www.w3.org/2000/svg" width="34.858" height="34.084" viewBox="0 0 34.858 34.084">
  <g id="Group_12586" data-name="Group 12586" transform="translate(0 0)">
    <g id="Group_12585" data-name="Group 12585">
      <g id="Group_12584" data-name="Group 12584">
        <g id="Group_12567" data-name="Group 12567" transform="translate(14.279 10.787)">
          <path id="Path_25582" data-name="Path 25582" d="M234.294,196.083H214.467a.376.376,0,0,1-.344-.527l9.913-22.545a.376.376,0,0,1,.688,0l9.9,22.516a.376.376,0,0,1-.329.557Zm-19.252-.751h18.675L224.38,174.1Z" transform="translate(-214.091 -172.786)" fill="#cca460"/>
        </g>
        <g id="Group_12568" data-name="Group 12568" transform="translate(0 10.787)">
          <path id="Path_25583" data-name="Path 25583" d="M39.032,196.083H24.466a.376.376,0,0,1-.345-.525l9.77-22.545a.376.376,0,0,1,.345-.226H48.658a.376.376,0,1,1,0,.751H34.482l-9.444,21.794H39.032a.376.376,0,1,1,0,.751Z" transform="translate(-24.09 -172.786)" fill="#cca460"/>
        </g>
        <g id="Group_12569" data-name="Group 12569" transform="translate(22.545 8.487)">
          <path id="Path_25584" data-name="Path 25584" d="M326.113,145.222a.376.376,0,0,1-.306-.157l-1.646-2.3a.376.376,0,1,1,.611-.437l1.311,1.832,1.066-1.8a.376.376,0,0,1,.647.382l-1.36,2.3a.376.376,0,0,1-.307.184Z" transform="translate(-324.091 -142.169)" fill="#cca460"/>
        </g>
        <g id="Group_12570" data-name="Group 12570" transform="translate(8.267 8.533)">
          <path id="Path_25585" data-name="Path 25585" d="M135.969,145.791a.376.376,0,0,1-.313-.167l-1.5-2.255a.376.376,0,0,1,.625-.417l1.19,1.786,1.19-1.786a.376.376,0,1,1,.625.417l-1.5,2.255A.376.376,0,0,1,135.969,145.791Z" transform="translate(-134.091 -142.785)" fill="#cca460"/>
        </g>
        <g id="Group_12571" data-name="Group 12571" transform="translate(24.048 10.787)">
          <path id="Path_25586" data-name="Path 25586" d="M344.467,196.083h0a.376.376,0,0,1-.373-.378l.143-22.545a.376.376,0,0,1,.376-.373h0a.376.376,0,0,1,.373.378l-.143,22.545A.376.376,0,0,1,344.467,196.083Z" transform="translate(-344.091 -172.786)" fill="#cca460"/>
        </g>
        <g id="Group_12572" data-name="Group 12572" transform="translate(18.788 20.008)">
          <path id="Path_25587" data-name="Path 25587" d="M274.466,309.555a.376.376,0,0,1-.349-.516l5.345-13.325a.376.376,0,0,1,.7.28l-5.345,13.325A.376.376,0,0,1,274.466,309.555Z" transform="translate(-274.09 -295.478)" fill="#cca460"/>
        </g>
        <g id="Group_12573" data-name="Group 12573" transform="translate(24.133 20.006)">
          <path id="Path_25588" data-name="Path 25588" d="M350.767,309.535a.376.376,0,0,1-.35-.24l-5.176-13.326a.376.376,0,0,1,.7-.272l5.176,13.326a.376.376,0,0,1-.35.512Z" transform="translate(-345.215 -295.458)" fill="#cca460"/>
        </g>
        <g id="Group_12574" data-name="Group 12574" transform="translate(0 23.563)">
          <path id="Path_25589" data-name="Path 25589" d="M24.467,353.307a.376.376,0,0,1-.376-.376v-9.77a.376.376,0,1,1,.752,0v9.77A.376.376,0,0,1,24.467,353.307Z" transform="translate(-24.091 -342.786)" fill="#cca460"/>
        </g>
        <g id="Group_12575" data-name="Group 12575" transform="translate(4.509 16.048)">
          <path id="Path_25590" data-name="Path 25590" d="M84.465,260.821a.376.376,0,0,1-.344-.526l7.515-17.285a.376.376,0,0,1,.689.3L84.81,260.6A.376.376,0,0,1,84.465,260.821Z" transform="translate(-84.089 -242.785)" fill="#cca460"/>
        </g>
        <path id="Path_25591" data-name="Path 25591" d="M190.593,208.538h0a.751.751,0,0,1-.752.752h0a.752.752,0,0,1-.751-.752h0a.752.752,0,0,1,.751-.751h0A.751.751,0,0,1,190.593,208.538Z" transform="translate(-176.69 -194.368)" fill="#cca460"/>
        <g id="Group_12576" data-name="Group 12576" transform="translate(1.325 30.326)">
          <path id="Path_25592" data-name="Path 25592" d="M60.707,433.538H42.092a.376.376,0,0,1,0-.752H60.707a.376.376,0,0,1,0,.752Z" transform="translate(-41.716 -432.786)" fill="#cca460"/>
        </g>
        <g id="Group_12577" data-name="Group 12577" transform="translate(25.551 0.666)">
          <path id="Path_25593" data-name="Path 25593" d="M367.8,45.217a3.705,3.705,0,0,1-1.525-7.082.376.376,0,0,1,.5.5,2.954,2.954,0,0,0,3.907,3.907.376.376,0,0,1,.5.5A3.714,3.714,0,0,1,367.8,45.217Zm-2.007-5.871a2.953,2.953,0,1,0,4.173,4.173,3.708,3.708,0,0,1-4.173-4.173Z" transform="translate(-364.091 -38.101)" fill="#cca460"/>
        </g>
        <g id="Group_12581" data-name="Group 12581" transform="translate(0.752 1.769)">
          <circle id="Ellipse_186" data-name="Ellipse 186" cx="0.752" cy="0.752" r="0.752" transform="translate(31.187 8.643)" fill="#cca460"/>
          <circle id="Ellipse_187" data-name="Ellipse 187" cx="0.752" cy="0.752" r="0.752" transform="translate(28.182 11.648)" fill="#cca460"/>
          <circle id="Ellipse_188" data-name="Ellipse 188" cx="0.752" cy="0.752" r="0.752" transform="translate(7.891 0.376)" fill="#cca460"/>
          <circle id="Ellipse_189" data-name="Ellipse 189" cx="0.752" cy="0.752" r="0.752" transform="translate(1.127 7.891)" fill="#cca460"/>
          <g id="Group_12578" data-name="Group 12578" transform="translate(31.751 16.533)">
            <path id="Path_25594" data-name="Path 25594" d="M458.282,278.8a.374.374,0,0,1-.266-.11l-1.315-1.315a.376.376,0,0,1,0-.531l1.049-1.049-1.049-1.049a.376.376,0,0,1,0-.531l1.315-1.315a.376.376,0,0,1,.531.531l-1.049,1.049,1.049,1.049a.376.376,0,0,1,0,.531l-1.049,1.049,1.049,1.049a.376.376,0,0,1-.266.641Z" transform="translate(-456.591 -272.786)" fill="#cca460"/>
          </g>
          <g id="Group_12579" data-name="Group 12579" transform="translate(0 13.276)">
            <path id="Path_25595" data-name="Path 25595" d="M37.473,232.709a.378.378,0,0,1-.091-.011l-2-.5a.376.376,0,0,1-.175-.63l1.007-1.007-1.817-.363a.376.376,0,0,1,.147-.737l2.5.5a.376.376,0,0,1,.192.634L36.2,231.628l1.36.34a.376.376,0,0,1-.091.74Z" transform="translate(-34.091 -229.452)" fill="#cca460"/>
          </g>
          <g id="Group_12580" data-name="Group 12580" transform="translate(0.752)">
            <path id="Path_25596" data-name="Path 25596" d="M45.97,56.544a1.879,1.879,0,1,1,1.879-1.879A1.881,1.881,0,0,1,45.97,56.544Zm0-3.006A1.127,1.127,0,1,0,47.1,54.665,1.129,1.129,0,0,0,45.97,53.538Z" transform="translate(-44.091 -52.786)" fill="#cca460"/>
          </g>
        </g>
        <g id="Group_12582" data-name="Group 12582" transform="translate(13.51)">
          <path id="Path_25597" data-name="Path 25597" d="M205.755,37.645a.376.376,0,0,1-.359-.265c-.168-.545-.356-1.062-.517-1.5a.376.376,0,0,1,.7-.262c.131.352.279.759.422,1.194.617-.155,1.207-.28,1.78-.4,1.972-.418,3.529-.748,4.251-1.961a1.542,1.542,0,0,0,.163-1.225,1.691,1.691,0,0,0-.874-1.035c-.758-.39-1.353-.305-2.356.335a.376.376,0,0,1-.578-.334c.05-1.118-.174-1.6-.925-1.987a1.919,1.919,0,0,0-2.505.658,2.539,2.539,0,0,0-.331,1.6.376.376,0,1,1-.748.067,3.3,3.3,0,0,1,.434-2.051,2.68,2.68,0,0,1,3.495-.942,2.245,2.245,0,0,1,1.328,2.025,2.554,2.554,0,0,1,2.532-.039,2.435,2.435,0,0,1,1.252,1.5,2.286,2.286,0,0,1-.24,1.817c-.89,1.5-2.675,1.874-4.741,2.312-.67.142-1.363.289-2.089.483A.375.375,0,0,1,205.755,37.645Z" transform="translate(-203.864 -29.242)" fill="#cca460"/>
        </g>
        <g id="Group_12583" data-name="Group 12583" transform="translate(11.272 2.073)">
          <path id="Path_25598" data-name="Path 25598" d="M177.691,61.646a.373.373,0,0,1-.157-.034c-.354-.163-.7-.3-1.029-.43-1.07-.424-1.994-.791-2.333-1.723a1.381,1.381,0,0,1,.061-1.093,1.523,1.523,0,0,1,.911-.767,1.694,1.694,0,0,1,.513-.085,1.467,1.467,0,0,1,.759.22,1.372,1.372,0,0,1,.935-.829,1.617,1.617,0,0,1,.486-.075,1.537,1.537,0,0,1,1.456.983c.343.944-.156,1.764-.734,2.714-.177.291-.36.592-.534.919A.376.376,0,0,1,177.691,61.646Zm-2.035-3.381a.958.958,0,0,0-.287.05.758.758,0,0,0-.462.383.635.635,0,0,0-.028.5c.224.615.929.895,1.9,1.282.242.1.49.194.746.3.13-.227.26-.441.387-.65.568-.934.88-1.49.67-2.067a.784.784,0,0,0-.75-.489.867.867,0,0,0-.26.04c-.361.113-.487.3-.564.813a.376.376,0,0,1-.626.221A1.1,1.1,0,0,0,175.656,58.265Z" transform="translate(-174.087 -56.83)" fill="#cca460"/>
        </g>
      </g>
    </g>
  </g>
</svg>
