<svg xmlns="http://www.w3.org/2000/svg" width="25.592" height="25.293" viewBox="0 0 25.592 25.293">
  <g id="Group_16656" data-name="Group 16656" transform="translate(-678.588 -749)">
    <g id="Group_13308" data-name="Group 13308" transform="translate(678.588 749)">
      <g id="Group_13307" data-name="Group 13307" transform="translate(0 0)">
        <path id="Path_26792" data-name="Path 26792" d="M9.9,163.9a2.4,2.4,0,1,0,2.4,2.4,2.4,2.4,0,0,0-2.4-2.4ZM14.2,169a.619.619,0,0,0-.159.021.471.471,0,0,0-.34.589l.542,1.879L12.3,172.611v-2.227a.959.959,0,0,0-.961-.961H8.455a.958.958,0,0,0-.93.722H5.571a2.069,2.069,0,0,0-1.923,2.2v3.3a2.069,2.069,0,0,0,1.923,2.2H7.494v5.287s-.995,2.24-1.553,3.675a.018.018,0,0,1-.016-.006c-.486-.183-3.689,1.582-4.337,1.944v.455H27.18v-8.8a12.946,12.946,0,0,0-3.423.115,29.032,29.032,0,0,0-4.217-.595c-.152,0-.291,0-.412.015a4.544,4.544,0,0,0-1.67.854l-2.021-8.155a.839.839,0,0,0-.1-1.011.007.007,0,0,0,0,0,.716.716,0,0,0,.086-.316,1.358,1.358,0,0,0-.038-.393l-.249-.929a.872.872,0,0,0-.492-.556l-.014-.055A.488.488,0,0,0,14.2,169Zm.5.661a.647.647,0,0,1,.257.357l.249.929a1.172,1.172,0,0,1,.033.335.6.6,0,0,1-.049.209c-.014-.01-.029-.02-.043-.029Zm.019,3.493,2.291,7.947c-.679.51-1.386,1.11-1.971,1.65-.142-1.356-.338-3.341-.338-3.957,0-.712-1.583-1.952-2.4-2.546v-1.695Zm-4.1,5.4a11.757,11.757,0,0,0,1.682,1.2l.934,4.672a6.665,6.665,0,0,1-1.883-.537c-.441-.167-1.2.2-1.946.694L9.9,183.6Z" transform="translate(-1.588 -163.895)" fill="#fff"/>
      </g>
    </g>
  </g>
</svg>
