<svg xmlns="http://www.w3.org/2000/svg" width="36.42" height="22.825" viewBox="0 0 36.42 22.825">
  <g id="Group_16654" data-name="Group 16654" transform="translate(7.061 -2.42)">
    <g id="Group_16653" data-name="Group 16653" transform="translate(-10.06 2.42)" opacity="0">
      <g id="Group_13314" data-name="Group 13314">
        <path id="Path_26797" data-name="Path 26797" d="M987.88,110.93Z" transform="translate(-956.8 -110.885)" fill="#fff"/>
        <path id="Path_26798" data-name="Path 26798" d="M987.88,110.767h0C987.882,110.728,987.882,110.689,987.88,110.767Z" transform="translate(-956.8 -110.722)" fill="#fff"/>
        <path id="Union_28" data-name="Union 28" d="M8483.624,9881.209a.477.477,0,1,1,0-.953c1.835-.03,1.616-.008,2.579,0v-10.526l-3.051,1.638a.5.5,0,0,1-.673-.184.465.465,0,0,1,.19-.647l6.506-3.491v-2.054h1.485v1.255l6.2-3.328a.515.515,0,0,1,.485,0l14.19,7.616a.468.468,0,0,1,.19.649.5.5,0,0,1-.435.244.519.519,0,0,1-.241-.061l-3.048-1.636v10.524h5.947v-3.377a2.338,2.338,0,0,1-1.311-.589c-.521-.5-.755-1.43-.755-2.882,0-2.245.772-7.654,2.685-7.654s2.683,5.485,2.683,7.729c0,2.876-1.022,3.377-2.311,3.43v3.343l1.034,0,.559,0a.624.624,0,0,1,.106.011c.114,0,.1,0,.021.007a.477.477,0,0,1,.366.462.483.483,0,0,1-.493.477Zm11.991-5.6v4.644h.99v-4.644a3.967,3.967,0,0,0-7.928,0v4.644h.991v-4.644a2.975,2.975,0,0,1,5.946,0Zm2.477-3.461v4.769a.489.489,0,0,0,.5.478h6.439a.486.486,0,0,0,.494-.478v-4.769a.486.486,0,0,0-.494-.479h-6.439A.488.488,0,0,0,8498.092,9872.148Zm.992,4.29v-2.383h5.449v2.383Zm0-3.337v-.477h5.449v.477Z" transform="translate(-8479.417 -9858.385)" fill="#fff"/>
      </g>
    </g>
    <g id="Group_16655" data-name="Group 16655" transform="translate(-746.845 -544.481)">
      <path id="Path_26785" data-name="Path 26785" d="M1178.768,256.734a2.875,2.875,0,0,0-.047,5.75,2.874,2.874,0,1,0,.047-5.748Z" transform="translate(-409.076 307.242)" fill="#fff"/>
      <path id="Path_26786" data-name="Path 26786" d="M859.077,256.735a2.873,2.873,0,1,0,2.83,2.9A2.823,2.823,0,0,0,859.077,256.735Z" transform="translate(-110.398 307.242)" fill="#fff"/>
      <path id="Path_26787" data-name="Path 26787" d="M1259.165,210.384c-.372-.143-.8-.367-1.14.048-.218.263-.031.829.4,1.165a4.619,4.619,0,0,0,2.559.773A3.764,3.764,0,0,0,1259.165,210.384Z" transform="translate(-485.73 350.719)" fill="none"/>
      <path id="Path_26788" data-name="Path 26788" d="M797.234,195.918a1.3,1.3,0,0,0-1.608.724,17.377,17.377,0,0,0-.56,2.217,4.068,4.068,0,0,0-.009.831l.132.017c.17-.5.329-1.007.517-1.5a1.8,1.8,0,0,1,1.528-1.35c.164-.018.434-.3.42-.436A.735.735,0,0,0,797.234,195.918Z" transform="translate(-53.299 364.121)" fill="none"/>
      <path id="Path_26789" data-name="Path 26789" d="M821.84,121a4.289,4.289,0,0,0-2.094-3.643,8.076,8.076,0,0,0-3.086-1.167,11.313,11.313,0,0,1-4.627-1.981c-.992-.677-2-1.336-3.027-1.95a8.642,8.642,0,0,0-3.708-1.326c-1.733-.142-3.475-.085-5.211-.193h0c-1.093,0-2.187-.036-3.278.009a5.082,5.082,0,0,0-3.851,1.5,20.513,20.513,0,0,0-1.387,1.782,2.277,2.277,0,0,1-1.333.987,3.881,3.881,0,0,0-3.192,3.5,16.618,16.618,0,0,0-.189,2.39,15.077,15.077,0,0,0,.317,2.42.848.848,0,0,0,.78.8c.739.026,1.479.012,2.219,0a.461.461,0,0,0,.509-.52c.006-.307.045-.614.076-.921a3.477,3.477,0,0,1,2.918-3.141,3.424,3.424,0,0,1,3.892,2.036,6.945,6.945,0,0,1,.387,1.789c.057.45.249.607.683.611q6.055.051,12.11.118c.77.007,1-.214.991-.971a3.405,3.405,0,0,1,1.25-2.759c1.7-1.448,4.77-1.012,5.588,1.31a8.457,8.457,0,0,1,.338,1.985c.027.28.1.4.359.4.537,0,1.076.023,1.61-.022.69-.058.944-.354.959-1.053C821.857,122.328,821.87,121.662,821.84,121Zm-20.612-5.509h-7.713c-.009-1.366-.574-4,7.712-3.713Zm1.133-.033v-3.649c6.223,0,7.778,2.467,7.778,3.647Z" transform="translate(-45.654 443.641)" fill="#fff"/>
    </g>
  </g>
</svg>
