<?xml version="1.0" standalone="no"?>
<svg version="1.0" xmlns="http://www.w3.org/2000/svg"
 width="32.000000pt" height="32.000000pt" viewBox="0 0 32.000000 32.000000"
 preserveAspectRatio="xMidYMid meet">

<g transform="translate(0.000000,32.000000) scale(0.100000,-0.100000)"
fill="#000000" stroke="none">
<path d="M80 250 c0 -16 7 -20 30 -20 23 0 30 4 30 20 0 16 -7 20 -30 20 -23
0 -30 -4 -30 -20z"/>
<path d="M160 240 c0 -5 14 -10 31 -10 17 0 28 4 24 10 -3 6 -17 10 -31 10
-13 0 -24 -4 -24 -10z"/>
<path d="M60 195 c0 -12 18 -15 106 -15 94 0 105 2 94 15 -9 11 -35 15 -106
15 -77 0 -94 -3 -94 -15z"/>
<path d="M30 130 c0 -32 9 -37 28 -18 8 8 15 8 27 -2 12 -10 18 -10 30 0 12
10 18 10 30 0 12 -10 18 -10 30 0 12 10 18 10 30 0 11 -9 18 -10 29 -1 7 6 21
8 30 5 16 -6 56 20 56 38 0 4 -65 8 -145 8 l-145 0 0 -30z"/>
<path d="M0 86 c0 -28 27 -33 164 -32 119 1 140 3 150 18 15 25 -1 35 -19 12
-15 -19 -15 -19 -30 0 -15 20 -15 20 -30 0 -15 -19 -15 -19 -30 0 -15 20 -15
20 -30 0 -15 -19 -15 -19 -30 0 -15 20 -15 20 -30 0 -15 -19 -15 -19 -30 0
-15 20 -15 20 -30 0 -14 -18 -16 -18 -29 -1 -16 21 -26 22 -26 3z"/>
</g>
</svg>
