<svg xmlns="http://www.w3.org/2000/svg" width="24.9" height="24.9" viewBox="0 0 24.9 24.9">
  <g id="Group_13448" data-name="Group 13448" transform="translate(-852 -456.001)">
    <g id="Group_12665" data-name="Group 12665" transform="translate(852 456.001)">
      <path id="Path_25631" data-name="Path 25631" d="M21.581,3.584l-3.4,3.4L9.675,5.916a3.734,3.734,0,0,0-2.638.669L5.042,8.011,13.2,11.96l-4.98,5.6H4.384a1.247,1.247,0,0,0-.881.365L2,19.431,7.6,21.3,9.47,26.9l1.5-1.5a1.247,1.247,0,0,0,.365-.881V20.675l5.6-4.98,3.949,8.162,1.427-1.994a3.734,3.734,0,0,0,.669-2.638l-1.064-8.51,3.4-3.4A5.411,5.411,0,0,0,26.9,3.495,1.494,1.494,0,0,0,25.406,2a5.411,5.411,0,0,0-3.825,1.584" transform="translate(-2 -2)" fill="#fff"/>
    </g>
  </g>
</svg>
