<svg xmlns="http://www.w3.org/2000/svg" width="22.426" height="25.708" viewBox="0 0 22.426 25.708">
  <g id="Group_16648" data-name="Group 16648" transform="translate(-572.001 -428.599)">
    <g id="Group_13289" data-name="Group 13289" transform="translate(572.001 428.599)">
      <path id="Path_26771" data-name="Path 26771" d="M11.28,41.813H32.7a.481.481,0,0,0,.514-.444V30.69a.893.893,0,0,0-.943-.814H28.933a.24.24,0,0,1-.257-.222v-4.44a.893.893,0,0,0-.943-.814H16.364a.893.893,0,0,0-.943.814v3.108a.24.24,0,0,1-.257.222H11.737a.893.893,0,0,0-.943.814V41.394C10.765,41.616,10.994,41.813,11.28,41.813ZM28.133,32.1a.058.058,0,0,1,.057-.049h2.657a.058.058,0,0,1,.057.049v2.294a.058.058,0,0,1-.057.049H28.19a.058.058,0,0,1-.057-.049Zm0,4.168a.058.058,0,0,1,.057-.049h2.657a.058.058,0,0,1,.057.049v2.294a.058.058,0,0,1-.057.049H28.19a.058.058,0,0,1-.057-.049Zm-5.256-8.559a.058.058,0,0,1,.057-.049h2.657a.058.058,0,0,1,.057.049V30a.058.058,0,0,1-.057.049H22.934A.058.058,0,0,1,22.877,30Zm0,4.39a.058.058,0,0,1,.057-.049h2.657a.058.058,0,0,1,.057.049v2.294a.058.058,0,0,1-.057.049H22.934a.058.058,0,0,1-.057-.049Zm0,4.168a.058.058,0,0,1,.057-.049h2.657a.058.058,0,0,1,.057.049v2.294a.058.058,0,0,1-.057.049H22.934a.058.058,0,0,1-.057-.049Zm-4.856-8.559a.058.058,0,0,1,.057-.049h2.657a.058.058,0,0,1,.057.049V30a.058.058,0,0,1-.057.049H18.078A.058.058,0,0,1,18.021,30Zm0,4.39a.058.058,0,0,1,.057-.049h2.657a.058.058,0,0,1,.057.049v2.294a.058.058,0,0,1-.057.049H18.078a.058.058,0,0,1-.057-.049Zm0,4.168a.058.058,0,0,1,.057-.049h2.657a.058.058,0,0,1,.057.049v2.294a.058.058,0,0,1-.057.049H18.078a.058.058,0,0,1-.057-.049ZM12.793,32.1a.058.058,0,0,1,.057-.049h2.657a.058.058,0,0,1,.057.049v2.294a.058.058,0,0,1-.057.049H12.851a.058.058,0,0,1-.057-.049Zm0,4.168a.058.058,0,0,1,.057-.049h2.657a.058.058,0,0,1,.057.049v2.294a.058.058,0,0,1-.057.049H12.851a.058.058,0,0,1-.057-.049Z" transform="translate(-10.792 -16.105)" fill="#fff"/>
      <path id="Path_26772" data-name="Path 26772" d="M48.893,7.437a.255.255,0,0,0-.128-.428L47.1,6.753c-.086,0-.128-.043-.171-.128l-.727-1.5a.242.242,0,0,0-.428,0l-.727,1.5c-.043.086-.086.128-.171.128l-1.668.257a.24.24,0,0,0-.128.428l1.2,1.154a.327.327,0,0,1,.086.214l-.3,1.668a.235.235,0,0,0,.342.257l1.5-.77a.191.191,0,0,1,.214,0l1.5.77a.235.235,0,0,0,.342-.257l-.3-1.668c0-.086,0-.171.086-.214Z" transform="translate(-34.781 -5)" fill="#fff"/>
      <path id="Path_26773" data-name="Path 26773" d="M34.048,11.639c.086-.086.043-.3-.086-.3l-1.2-.171c-.043,0-.128-.043-.128-.086l-.556-1.112c-.086-.128-.257-.128-.3,0l-.556,1.112c-.043.043-.086.086-.128.086l-1.2.171a.17.17,0,0,0-.086.3l.855.855c.043.043.043.086.043.171l-.214,1.2a.167.167,0,0,0,.257.171l1.069-.556a.13.13,0,0,1,.171,0l1.069.556a.167.167,0,0,0,.257-.171l-.214-1.2a.257.257,0,0,1,.043-.171Z" transform="translate(-24.735 -7.791)" fill="#fff"/>
      <path id="Path_26774" data-name="Path 26774" d="M24.131,15.726c.086-.086.043-.171-.043-.214l-.77-.128a.149.149,0,0,1-.086-.043l-.342-.727a.121.121,0,0,0-.214,0l-.342.727c0,.043-.043.043-.086.043l-.77.128c-.086,0-.128.128-.043.214l.556.556a.132.132,0,0,1,.043.086l-.128.77c0,.086.086.171.171.128l.684-.385h.086l.684.385c.086.043.171-.043.171-.128l-.128-.77c0-.043,0-.086.043-.086Z" transform="translate(-18.859 -10.467)" fill="#fff"/>
      <path id="Path_26775" data-name="Path 26775" d="M74.531,15.726c.086-.086.043-.171-.043-.214l-.77-.128a.149.149,0,0,1-.086-.043l-.342-.727a.121.121,0,0,0-.214,0l-.342.727c0,.043-.043.043-.086.043l-.77.128c-.086,0-.128.128-.043.214l.556.556a.132.132,0,0,1,.043.086l-.128.77c0,.086.086.171.171.128l.684-.385h.086l.684.385c.086.043.171-.043.171-.128l-.128-.77c0-.043,0-.086.043-.086Z" transform="translate(-54.852 -10.373)" fill="#fff"/>
      <path id="Path_26776" data-name="Path 26776" d="M64.248,11.639c.086-.086.043-.3-.086-.3l-1.2-.171c-.043,0-.128-.043-.128-.086l-.556-1.112c-.086-.128-.257-.128-.3,0l-.556,1.112c-.043.043-.086.086-.128.086l-1.2.171a.17.17,0,0,0-.086.3l.855.855c.043.043.043.086.043.171l-.214,1.2a.167.167,0,0,0,.257.171l1.069-.556a.13.13,0,0,1,.171,0l1.069.556a.167.167,0,0,0,.257-.171l-.214-1.2a.257.257,0,0,1,.043-.171Z" transform="translate(-46.945 -7.791)" fill="#fff"/>
    </g>
  </g>
</svg>
