<svg xmlns="http://www.w3.org/2000/svg" width="25.761" height="25.826" viewBox="0 0 25.761 25.826">
  <path id="Union_25" data-name="Union 25" d="M21.745,25.826H15.412V8.011H20.9a.839.839,0,0,1,.823.832v3.18a.223.223,0,0,0,.224.227h2.992a.839.839,0,0,1,.823.833V25.4a.363.363,0,0,1-.095.286.44.44,0,0,1-.328.143Zm-.15-5.677V22.5a.055.055,0,0,0,.05.052h2.318a.055.055,0,0,0,.052-.052V20.149a.055.055,0,0,0-.052-.051H21.645A.055.055,0,0,0,21.6,20.149Zm-4.565,0V22.5a.053.053,0,0,0,.048.052H19.4a.055.055,0,0,0,.05-.052V20.149a.055.055,0,0,0-.05-.051H17.079A.052.052,0,0,0,17.03,20.149ZM21.6,15.884v2.347a.055.055,0,0,0,.05.051h2.318a.055.055,0,0,0,.052-.051V15.884a.055.055,0,0,0-.052-.05H21.645A.055.055,0,0,0,21.6,15.884Zm-4.565,0v2.347a.052.052,0,0,0,.048.051H19.4a.055.055,0,0,0,.05-.051V15.884a.055.055,0,0,0-.05-.05H17.079A.053.053,0,0,0,17.03,15.884Zm0-4.492v2.347a.052.052,0,0,0,.048.051H19.4a.055.055,0,0,0,.05-.051V11.392a.052.052,0,0,0-.05-.048H17.079A.049.049,0,0,0,17.03,11.392ZM15,25.826H.617a.641.641,0,0,1-.476-.208A.524.524,0,0,1,0,25.2V7.351A1.215,1.215,0,0,1,1.2,6.145H5.534a.323.323,0,0,0,.324-.329V1.206A1.216,1.216,0,0,1,7.052,0H15V25.825h0ZM9.149,17.6V21a.079.079,0,0,0,.073.074h3.364a.076.076,0,0,0,.07-.074V17.6a.076.076,0,0,0-.07-.074H9.222A.079.079,0,0,0,9.149,17.6Zm-6.617,0V21a.08.08,0,0,0,.074.074h3.36A.079.079,0,0,0,6.039,21V17.6a.079.079,0,0,0-.073-.074H2.606A.08.08,0,0,0,2.532,17.6Zm6.617-6.183v3.4a.079.079,0,0,0,.073.074h3.364a.075.075,0,0,0,.07-.074v-3.4a.078.078,0,0,0-.07-.073H9.222A.079.079,0,0,0,9.149,11.413Zm-6.617,0v3.4a.079.079,0,0,0,.074.074h3.36a.079.079,0,0,0,.073-.074v-3.4a.079.079,0,0,0-.073-.073H2.606A.079.079,0,0,0,2.532,11.413ZM9.149,4.9V8.3a.079.079,0,0,0,.073.074h3.364a.076.076,0,0,0,.07-.074V4.9a.071.071,0,0,0-.07-.069H9.222A.075.075,0,0,0,9.149,4.9Z" transform="translate(0)" fill="#fff"/>
</svg>
