<svg xmlns="http://www.w3.org/2000/svg" width="27.181" height="27.181" viewBox="0 0 27.181 27.181">
  <path id="Instagram" d="M1428-622.819a8,8,0,0,1-5.7-2.137,7.887,7.887,0,0,1-2.3-5.863v-11.234a7.507,7.507,0,0,1,7.946-7.946h11.289a7.8,7.8,0,0,1,5.753,2.247,7.854,7.854,0,0,1,2.193,5.7v11.289a7.843,7.843,0,0,1-2.247,5.808,8.09,8.09,0,0,1-5.753,2.137Zm-4-23.235a5.461,5.461,0,0,0-1.48,4v11.234a5.506,5.506,0,0,0,1.48,4.055,5.664,5.664,0,0,0,4,1.425h11.18a5.666,5.666,0,0,0,4-1.425,5.358,5.358,0,0,0,1.589-4v-11.289a5.653,5.653,0,0,0-1.48-3.946,5.464,5.464,0,0,0-4-1.479H1428A5.573,5.573,0,0,0,1424-646.054Zm2.575,9.59a7.027,7.027,0,0,1,7.014-7.014,7.063,7.063,0,0,1,7.014,7.014,7.028,7.028,0,0,1-7.014,7.014A6.992,6.992,0,0,1,1426.576-636.464Zm2.521,0a4.514,4.514,0,0,0,4.493,4.494,4.514,4.514,0,0,0,4.494-4.494,4.514,4.514,0,0,0-4.494-4.494A4.514,4.514,0,0,0,1429.1-636.464Zm10.193-7.179a1.589,1.589,0,0,1,1.589-1.589,1.589,1.589,0,0,1,1.589,1.589,1.589,1.589,0,0,1-1.589,1.589A1.589,1.589,0,0,1,1439.289-643.643Z" transform="translate(-1420 650)" fill="#c49546"/>
</svg>
