<svg xmlns="http://www.w3.org/2000/svg" width="70" height="70" viewBox="0 0 70 70">
  <path id="Union_7" data-name="Union 7" d="M32.045,68.35A33.449,33.449,0,0,1,1.549,36.4a2.284,2.284,0,0,1,.1-4.357,33.457,33.457,0,0,1,30.4-30.4,2.282,2.282,0,0,1,4.355-.1A33.448,33.448,0,0,1,68.35,32.046a2.284,2.284,0,0,1,.1,4.357A33.446,33.446,0,0,1,36.4,68.449a2.282,2.282,0,0,1-4.355-.1ZM36.4,66.994A32,32,0,0,0,66.992,36.405a2.283,2.283,0,0,1-.1-4.3A31.99,31.99,0,0,0,36.4,3.009a2.282,2.282,0,0,1-4.292.1A32,32,0,0,0,3.1,32.11a2.284,2.284,0,0,1-.1,4.295A32,32,0,0,0,32.109,66.9a2.282,2.282,0,0,1,4.292.1ZM54.559,55.22,47.8,50.084A19.792,19.792,0,0,1,21.983,49.9l-6.769,5.284,3.711-8.643A19.792,19.792,0,0,1,32.3,15.4l2.32-5.4,2.342,5.313a19.791,19.791,0,0,1,13.9,31.515l3.7,8.388v0ZM34.1,40.444,23.9,48.4a17.408,17.408,0,0,0,21.954.2L35.112,40.439l-.513-.387ZM48.043,46.52a.006.006,0,0,1,.005,0L35.172,17.6H35c-.111,0-.222,0-.331,0L22.181,45.753l12.74-9.845Zm1.691-2.251a17.416,17.416,0,0,0-11.646-26.4ZM22.695,22.7a17.41,17.41,0,0,0-2.644,21.224l11.123-25.9A17.3,17.3,0,0,0,22.695,22.7Z" fill="#c49546"/>
</svg>
