<svg xmlns="http://www.w3.org/2000/svg" width="156.348" height="67.999" viewBox="0 0 156.348 67.999">
  <g id="Group_13263" data-name="Group 13263" transform="translate(0.264 -0.001)">
    <path id="Union_29" data-name="Union 29" d="M12077.865,6293.4a32.513,32.513,0,0,1-29.625-31.039,2.218,2.218,0,0,1,.1-4.229,32.52,32.52,0,0,1,29.529-29.529,2.218,2.218,0,0,1,4.23-.1,32.5,32.5,0,0,1,31.039,29.626,2.216,2.216,0,0,1,.1,4.229,32.485,32.485,0,0,1-31.137,31.13,2.217,2.217,0,0,1-4.23-.091Zm4.236-1.321a31.089,31.089,0,0,0,29.713-29.711,2.218,2.218,0,0,1-.092-4.175,30.72,30.72,0,0,0-2.326-9.3,31.08,31.08,0,0,0-27.295-18.97,2.219,2.219,0,0,1-4.174.1,31.074,31.074,0,0,0-28.172,28.173,2.22,2.22,0,0,1-.1,4.175,31.1,31.1,0,0,0,28.27,29.62,2.221,2.221,0,0,1,4.174.091Zm17.637-11.436-6.561-4.99a19.235,19.235,0,0,1-25.086-.177l-6.572,5.131,3.6-8.393a19.229,19.229,0,0,1,12.994-30.253l2.252-5.246,2.275,5.16a19.22,19.22,0,0,1,13.506,30.613l3.6,8.148v.006Zm-19.877-14.356-9.906,7.735a16.919,16.919,0,0,0,21.33.194l-10.437-7.93-.5-.377Zm13.549,5.9a.006.006,0,0,1,.006-.006l-12.508-28.087h-.492l-12.129,27.351,12.373-9.567Zm1.643-2.185a16.924,16.924,0,0,0-11.314-25.646Zm-26.268-20.954a16.906,16.906,0,0,0-2.568,20.613l10.8-25.159A16.814,16.814,0,0,0,12068.785,6249.051Zm119.012,23.814V6268h1.211v4.839a2.156,2.156,0,1,0,4.309,0V6268h1.211v4.863a3.366,3.366,0,0,1-6.73.006Zm-15.525-.864a4,4,0,0,1,4.1-4.139,3.629,3.629,0,0,1,3.184,1.692l-1.023.541a2.541,2.541,0,0,0-2.16-1.162,3.078,3.078,0,0,0,0,6.141,2.541,2.541,0,0,0,2.16-1.162l1.023.542a3.658,3.658,0,0,1-3.184,1.691A4.006,4.006,0,0,1,12172.271,6272Zm24.648,4v-8h3.756a2.034,2.034,0,0,1,2.258,2.039,1.815,1.815,0,0,1-1.395,1.838,1.969,1.969,0,0,1,1.545,1.966,2.091,2.091,0,0,1-2.312,2.16Zm1.2-1.053h2.385a1.2,1.2,0,0,0,1.346-1.26,1.225,1.225,0,0,0-1.346-1.241h-2.385Zm0-3.554h2.324a1.174,1.174,0,1,0,0-2.344h-2.324Zm-16.768,4.606v-8h1.205v6.95h3.633V6276Zm-19.2,0v-8h1.2v6.95h3.633V6276Zm-7.479,0v-8h5.379v1.053h-4.18v2.344h4.1v1.053h-4.1v2.5h4.18V6276Zm-6.238,0-3.184-8h1.369l2.557,6.7,2.568-6.7h1.369l-3.184,8Zm-4.607,0-.652-1.655h-3.924l-.646,1.655h-1.32l3.184-8h1.5l3.184,8Zm-4.225-2.727h3.227l-1.619-4.235Zm-4.9,2.727-1.9-3.085h-1.5V6276h-1.2v-8h3.371a2.388,2.388,0,0,1,2.568,2.459,2.236,2.236,0,0,1-1.99,2.343l2.053,3.2Zm-3.408-4.138h2.021a1.408,1.408,0,1,0,0-2.812h-2.021Zm-6.719,4.138v-6.95h-2.482V6268h6.152v1.053h-2.471V6276Zm19.092-17.064,1.43-1.984a6.352,6.352,0,0,0,4.645,2.026c2.111,0,2.945-1.034,2.945-2,0-1.32-1.559-1.716-3.342-2.179-2.4-.6-5.215-1.3-5.215-4.4,0-2.422,2.135-4.29,5.344-4.29a7.62,7.62,0,0,1,5.5,2.045l-1.473,1.917a5.96,5.96,0,0,0-4.24-1.674c-1.521,0-2.49.725-2.49,1.826,0,1.144,1.5,1.521,3.232,1.959,2.422.615,5.3,1.363,5.3,4.553,0,2.44-1.711,4.534-5.672,4.534A7.869,7.869,0,0,1,12143.674,6258.935Zm56.41,2.063-3.256-5.477h-2.557V6261h-2.566v-14.673h6.443a4.456,4.456,0,0,1,4.8,4.6,4.114,4.114,0,0,1-3.475,4.31l3.584,5.763Zm-5.812-7.741h3.525a2.337,2.337,0,1,0,0-4.661h-3.525Zm-15.264,7.741v-14.673h10.055v2.271h-7.486v3.8h7.328v2.264h-7.328v4.071h7.486V6261Zm-15.621,0v-14.673h5.459c4.57,0,7.674,3.037,7.674,7.352s-3.1,7.321-7.674,7.321Zm2.574-2.264h2.885a4.815,4.815,0,0,0,5.033-5.058,4.75,4.75,0,0,0-5.033-5.081h-2.885Zm-8.271,2.264v-14.673h2.574V6261Zm-18.678,0-7.656-10.687V6261h-2.574v-14.673h2.641l7.5,10.407v-10.407h2.574V6261Zm-15.928,0v-14.673h2.574V6261Z" transform="translate(-12047 -6227)" fill="#c49546"/>
  </g>
</svg>
