<svg xmlns="http://www.w3.org/2000/svg" width="31.762" height="31.826" viewBox="0 0 31.762 31.826">
  <path id="Union_17" data-name="Union 17" d="M26.809,31.826H19V9.872h6.763A1.034,1.034,0,0,1,26.779,10.9v3.919a.275.275,0,0,0,.276.28h3.689a1.034,1.034,0,0,1,1.014,1.026V31.3a.447.447,0,0,1-.117.352.543.543,0,0,1-.4.176Zm-.184-7v2.892a.068.068,0,0,0,.062.064h2.858a.068.068,0,0,0,.064-.064V24.83a.068.068,0,0,0-.064-.063H26.687A.068.068,0,0,0,26.625,24.83ZM21,24.83v2.892a.065.065,0,0,0,.059.064h2.862a.068.068,0,0,0,.062-.064V24.83a.068.068,0,0,0-.062-.063H21.056A.064.064,0,0,0,21,24.83Zm5.628-5.256v2.893a.068.068,0,0,0,.062.063h2.858a.068.068,0,0,0,.064-.063V19.574a.068.068,0,0,0-.064-.062H26.687A.068.068,0,0,0,26.625,19.574Zm-5.628,0v2.893a.064.064,0,0,0,.059.063h2.862a.068.068,0,0,0,.062-.063V19.574a.068.068,0,0,0-.062-.062H21.056A.066.066,0,0,0,21,19.574Zm0-5.535v2.892a.064.064,0,0,0,.059.063h2.862a.068.068,0,0,0,.062-.063V14.039a.064.064,0,0,0-.062-.059H21.056A.06.06,0,0,0,21,14.039Zm-2.5,17.787H.761a.791.791,0,0,1-.587-.256A.646.646,0,0,1,0,31.059v-22A1.5,1.5,0,0,1,1.475,7.573H6.823a.4.4,0,0,0,.4-.405V1.487A1.5,1.5,0,0,1,8.694,0h9.8V31.825h0ZM11.28,21.684v4.192a.1.1,0,0,0,.09.092h4.148a.094.094,0,0,0,.086-.092V21.684a.094.094,0,0,0-.086-.092H11.37A.1.1,0,0,0,11.28,21.684Zm-8.159,0v4.192a.1.1,0,0,0,.092.092H7.356a.1.1,0,0,0,.09-.092V21.684a.1.1,0,0,0-.09-.092H3.213A.1.1,0,0,0,3.121,21.684Zm8.159-7.619v4.194a.1.1,0,0,0,.09.091h4.148a.093.093,0,0,0,.086-.091V14.064a.1.1,0,0,0-.086-.09H11.37A.1.1,0,0,0,11.28,14.064Zm-8.159,0v4.194a.1.1,0,0,0,.092.091H7.356a.1.1,0,0,0,.09-.091V14.064a.1.1,0,0,0-.09-.09H3.213A.1.1,0,0,0,3.121,14.064ZM11.28,6.04v4.193a.1.1,0,0,0,.09.092h4.148a.094.094,0,0,0,.086-.092V6.04a.087.087,0,0,0-.086-.086H11.37A.093.093,0,0,0,11.28,6.04Z" fill="#fff"/>
</svg>
