<svg xmlns="http://www.w3.org/2000/svg" width="10.232" height="27.498" viewBox="0 0 10.232 27.498">
  <g id="Group_16674" data-name="Group 16674" transform="translate(-3743.4 6636.51)">
    <g id="Group_16673" data-name="Group 16673" transform="translate(3744 -6635.91)">
      <ellipse id="Ellipse_227" data-name="Ellipse 227" cx="2.706" cy="2.697" rx="2.706" ry="2.697" transform="translate(1.808 0)" fill="none" stroke="#4e4e4e" stroke-width="1.2"/>
      <path id="Path_25628" data-name="Path 25628" d="M88.1,62.182H82.541a1.733,1.733,0,0,0-1.736,1.73v6.254A1.734,1.734,0,0,0,82.541,71.9h.422v9.118A1.337,1.337,0,0,0,84.3,82.35h2.035a1.337,1.337,0,0,0,1.34-1.335V71.9H88.1a1.734,1.734,0,0,0,1.736-1.731h0V63.912A1.735,1.735,0,0,0,88.1,62.182Z" transform="translate(-80.805 -56.052)" fill="none" stroke="#4e4e4e" stroke-width="1.2"/>
    </g>
  </g>
</svg>
