<svg xmlns="http://www.w3.org/2000/svg" width="26.297" height="26.298" viewBox="0 0 26.297 26.298">
  <g id="noun_Speedometer_1546289" transform="translate(-6.858 -6.858)">
    <g id="Group_13033" data-name="Group 13033" transform="translate(6.858 6.858)">
      <path id="Path_25783" data-name="Path 25783" d="M19.945,959.221a.61.61,0,0,0-.543.61v4.886a.61.61,0,1,0,1.219,0v-4.257a11.928,11.928,0,1,1-8.981,20.43l-.019-.019c-.008-.008-.011-.021-.019-.029l-.029-.029c-.12-.12-.238-.247-.352-.371-.015-.016-.033-.031-.048-.048l-.029-.029c-.036-.04-.069-.083-.1-.124-.1-.113-.191-.226-.286-.343s-.208-.252-.3-.381c-.023-.031-.044-.064-.067-.1-.093-.126-.18-.252-.267-.381-.024-.036-.052-.069-.076-.1-.041-.062-.075-.128-.114-.19-.064-.1-.129-.2-.19-.3-.015-.026-.033-.05-.048-.076-.075-.128-.149-.259-.219-.391-.023-.044-.044-.089-.067-.133-.077-.148-.149-.3-.219-.448-.057-.124-.118-.246-.171-.371-.013-.031-.025-.064-.038-.1-.042-.1-.076-.2-.114-.3-.031-.083-.066-.164-.1-.248-.016-.044-.032-.089-.048-.133-.049-.145-.1-.291-.143-.438-.028-.092-.051-.184-.076-.276-.018-.066-.04-.133-.057-.2-.04-.158-.071-.317-.1-.476-.006-.029-.013-.057-.019-.086-.038-.188-.075-.382-.1-.572-.006-.038-.014-.076-.019-.114-.024-.163-.04-.322-.057-.486,0-.025-.007-.051-.01-.076-.036-.377-.048-.757-.048-1.143a.609.609,0,0,0-.01-.1c0-.006,0-.013,0-.019a11.905,11.905,0,0,1,3.5-8.315.613.613,0,1,0-.867-.867,13.122,13.122,0,0,0-3.848,9.248q0,.029,0,.057c0,.21.009.418.019.629,0,.016,0,.032,0,.048.018.35.05.7.1,1.038.007.057.011.115.019.172.005.038.013.076.019.114.031.2.064.408.1.609,0,.013.007.025.01.038.033.163.075.324.114.486.05.2.1.4.162.6,0,.006,0,.013,0,.019.051.171.114.337.171.5.017.05.03.1.048.152.048.135.1.267.152.4.021.054.035.108.057.162.067.163.136.326.21.486.021.045.046.089.067.133.039.082.074.167.114.248s.095.185.143.276c.027.051.058.1.086.152.1.184.205.363.314.543.2.327.409.65.638.962.13.177.269.352.41.524.065.08.133.16.2.238.223.26.449.516.7.762h.01a.609.609,0,0,0,.086.076,13.145,13.145,0,1,0,9.21-22.525.552.552,0,0,0-.067,0Z" transform="translate(-6.858 -959.22)" fill="#4e4e4e" fill-rule="evenodd"/>
      <path id="Path_25784" data-name="Path 25784" d="M34.222,975.462a.61.61,0,0,0-.564.829c.267.691.791,2.211,1.3,3.651.256.72.511,1.423.735,2a10.191,10.191,0,0,0,.571,1.316h0a1.992,1.992,0,0,0,2.647.927l0,0a1.99,1.99,0,0,0,.518-2.753v0h0a10.081,10.081,0,0,0-.854-1.153c-.392-.485-.873-1.057-1.369-1.638-.991-1.164-2.046-2.377-2.511-2.954a.609.609,0,0,0-.479-.227Z" transform="translate(-25.462 -970.51)" fill="#4e4e4e" fill-rule="evenodd"/>
    </g>
  </g>
</svg>
