<svg xmlns="http://www.w3.org/2000/svg" width="26.996" height="21.939" viewBox="0 0 26.996 21.939">
  <path id="Twitter" d="M30.57,12.923a11.02,11.02,0,0,1-3.181.872,5.548,5.548,0,0,0,2.435-3.064,11.087,11.087,0,0,1-3.517,1.345,5.543,5.543,0,0,0-9.437,5.051A15.726,15.726,0,0,1,5.454,11.34a5.546,5.546,0,0,0,1.714,7.395,5.523,5.523,0,0,1-2.509-.693c0,.023,0,.047,0,.07A5.543,5.543,0,0,0,9.1,23.542a5.569,5.569,0,0,1-1.459.194,5.488,5.488,0,0,1-1.042-.1,5.545,5.545,0,0,0,5.174,3.846,11.176,11.176,0,0,1-8.2,2.293,15.673,15.673,0,0,0,8.49,2.488A15.65,15.65,0,0,0,27.822,16.506q0-.36-.015-.717A11.218,11.218,0,0,0,30.57,12.923Z" transform="translate(-3.574 -10.326)" fill="#c49546"/>
</svg>
