<svg xmlns="http://www.w3.org/2000/svg" width="34.835" height="22.825" viewBox="0 0 34.835 22.825">
  <g id="Group_16654" data-name="Group 16654" transform="translate(7.061 -2.42)">
    <g id="Group_16653" data-name="Group 16653" transform="translate(-10.06 2.42)">
      <g id="Group_13314" data-name="Group 13314">
        <path id="Path_26797" data-name="Path 26797" d="M987.88,110.93Z" transform="translate(-956.8 -110.885)" fill="#fff"/>
        <path id="Path_26798" data-name="Path 26798" d="M987.88,110.767h0C987.882,110.728,987.882,110.689,987.88,110.767Z" transform="translate(-956.8 -110.722)" fill="#fff"/>
        <path id="Union_28" data-name="Union 28" d="M8483.624,9881.209a.477.477,0,1,1,0-.953c1.835-.03,1.616-.008,2.579,0v-10.526l-3.051,1.638a.5.5,0,0,1-.673-.184.465.465,0,0,1,.19-.647l6.506-3.491v-2.054h1.485v1.255l6.2-3.328a.515.515,0,0,1,.485,0l14.19,7.616a.468.468,0,0,1,.19.649.5.5,0,0,1-.435.244.519.519,0,0,1-.241-.061l-3.048-1.636v10.524h5.947v-3.377a2.338,2.338,0,0,1-1.311-.589c-.521-.5-.755-1.43-.755-2.882,0-2.245.772-7.654,2.685-7.654s2.683,5.485,2.683,7.729c0,2.876-1.022,3.377-2.311,3.43v3.343l1.034,0,.559,0a.624.624,0,0,1,.106.011c.114,0,.1,0,.021.007a.477.477,0,0,1,.366.462.483.483,0,0,1-.493.477Zm11.991-5.6v4.644h.99v-4.644a3.967,3.967,0,0,0-7.928,0v4.644h.991v-4.644a2.975,2.975,0,0,1,5.946,0Zm2.477-3.461v4.769a.489.489,0,0,0,.5.478h6.439a.486.486,0,0,0,.494-.478v-4.769a.486.486,0,0,0-.494-.479h-6.439A.488.488,0,0,0,8498.092,9872.148Zm.992,4.29v-2.383h5.449v2.383Zm0-3.337v-.477h5.449v.477Z" transform="translate(-8479.417 -9858.385)" fill="#fff"/>
      </g>
    </g>
  </g>
</svg>
