<svg xmlns="http://www.w3.org/2000/svg" width="40.834" height="24.824" viewBox="0 0 40.834 24.824">
    <g id="Group_13451" data-name="Group 13451" transform="translate(-554.414 -674.607)">
        <g id="Group_13314" data-name="Group 13314" transform="translate(554.414 674.608)">
            <path id="Path_26797" data-name="Path 26797" d="M987.88,110.93Z" transform="translate(-956.8 -110.885)" fill="#fff"/>
            <path id="Path_26798" data-name="Path 26798" d="M987.88,110.767h0C987.882,110.728,987.882,110.689,987.88,110.767Z" transform="translate(-956.8 -110.722)" fill="#fff"/>
            <rect id="Rectangle_18799" data-name="Rectangle 18799" width="6.388" height="2.904" transform="translate(19.538 16.111)" fill="#fff"/>
            <rect id="Rectangle_18800" data-name="Rectangle 18800" width="6.388" height="0.581" transform="translate(19.538 14.369)" fill="#fff"/>
            <path id="Path_26796" data-name="Path 26796" d="M14.4,45.123,30.754,36l16.352,9.119a.581.581,0,1,0,.566-1.014L31.037,34.832a.58.58,0,0,0-.566,0L23.2,38.885V37.356H21.462v2.5l-7.625,4.252a.58.58,0,1,0,.565,1.014Z" transform="translate(-13.539 -32.289)" fill="#fff"/>
            <path id="Path_26795" data-name="Path 26795" d="M54.157,56.48a13.268,13.268,0,0,1-1.869,0V52.408C53.8,52.343,55,51.734,55,48.23c0-2.732-.905-9.412-3.146-9.412s-3.146,6.589-3.146,9.321c0,1.768.274,2.9.887,3.511a2.674,2.674,0,0,0,1.533.717V56.48h-6.97V43.088L31.379,36l-6.686,3.763-4.869,2.783h0l-1.221.547V56.48c-1.13-.008-.871-.035-3.021,0a.581.581,0,1,0,0,1.162H54.157a.581.581,0,0,0,0-1.162Zm-23.358,0H29.637V50.822a3.485,3.485,0,1,0-6.97,0V56.48H21.506V50.822a4.646,4.646,0,1,1,9.292,0V56.48Zm10.455-8.13v4.065a.58.58,0,0,1-.581.581h-7.55a.58.58,0,0,1-.581-.581V46.607a.581.581,0,0,1,.581-.581h7.55a.581.581,0,0,1,.581.581Zm10.454,0a.58.58,0,0,0-.581.581v2.259a1.393,1.393,0,0,1-.714-.345,4.542,4.542,0,0,1-.544-2.741c0-4.2,1.364-8.088,1.984-8.088s1.985,4,1.985,8.2c0,2.623-.548,2.989-1.549,3.034V48.93A.58.58,0,0,0,51.707,48.35Z" transform="translate(-14.164 -32.819)" fill="#fff"/>
            <path id="Path_26799" data-name="Path 26799" d="M-17729.359-13320.248l-1.088-2.329,1.088-7.174,1.818-2.327,1.723,2.327s.906,4.473.906,4.938-.906,4.564-.906,4.564l-3.541.466Z" transform="translate(17765.334 13338.798)" fill="#fff"/>
        </g>
    </g>
</svg>
